<svg xmlns="http://www.w3.org/2000/svg" xmlns:xlink="http://www.w3.org/1999/xlink" viewBox="-2881 2292 14 14"><defs><style>.a{fill:#fff;}.b{opacity:0.5;clip-path:url(#a);}</style><clipPath id="a"><rect class="a" width="14" height="14" transform="translate(144 3676)"/></clipPath></defs><g class="b" transform="translate(-3025 -1384)"><g transform="translate(144 3676)"><path class="a" d="M1.344,4.891q.266.187,1.6,1.113T4.992,7.43l.332.238q.254.184.422.3t.406.254a2.357,2.357,0,0,0,.449.211,1.238,1.238,0,0,0,.391.07h.016a1.239,1.239,0,0,0,.391-.07,2.359,2.359,0,0,0,.449-.211q.238-.141.406-.254t.422-.3q.254-.184.332-.238l3.656-2.539a3.711,3.711,0,0,0,.953-.961A2.063,2.063,0,0,0,14,2.75,1.261,1.261,0,0,0,12.75,1.5H1.25a1.116,1.116,0,0,0-.926.406A1.577,1.577,0,0,0,0,2.922,1.825,1.825,0,0,0,.43,3.988,3.878,3.878,0,0,0,1.344,4.891Z"/><path class="a" d="M13.219,5.727q-2.562,1.734-3.89,2.7-.445.328-.723.512a4.46,4.46,0,0,1-.738.375,2.248,2.248,0,0,1-.859.191H6.992a2.249,2.249,0,0,1-.859-.191,4.462,4.462,0,0,1-.738-.375q-.277-.183-.723-.512Q3.617,7.649.789,5.727A4.138,4.138,0,0,1,0,5.047v6.2a1.2,1.2,0,0,0,.367.883,1.2,1.2,0,0,0,.883.367h11.5A1.254,1.254,0,0,0,14,11.25v-6.2A4.308,4.308,0,0,1,13.219,5.727Z"/></g></g></svg>