<?xml version="1.0" encoding="UTF-8" standalone="no"?>
<svg
   xmlns:dc="http://purl.org/dc/elements/1.1/"
   xmlns:cc="http://creativecommons.org/ns#"
   xmlns:rdf="http://www.w3.org/1999/02/22-rdf-syntax-ns#"
   xmlns:svg="http://www.w3.org/2000/svg"
   xmlns="http://www.w3.org/2000/svg"
   xmlns:sodipodi="http://sodipodi.sourceforge.net/DTD/sodipodi-0.dtd"
   xmlns:inkscape="http://www.inkscape.org/namespaces/inkscape"
   width="133mm"
   height="84mm"
   viewBox="0 0 133 84"
   version="1.1"
   id="svg4533"
   sodipodi:docname="devtalesico.svg"
   inkscape:version="0.92.1 r15371">
  <metadata
     id="metadata4539">
    <rdf:RDF>
      <cc:Work
         rdf:about="">
        <dc:format>image/svg+xml</dc:format>
        <dc:type
           rdf:resource="http://purl.org/dc/dcmitype/StillImage" />
        <dc:title></dc:title>
      </cc:Work>
    </rdf:RDF>
  </metadata>
  <defs
     id="defs4537" />
  <sodipodi:namedview
     pagecolor="#ffffff"
     bordercolor="#666666"
     borderopacity="1"
     objecttolerance="10"
     gridtolerance="10"
     guidetolerance="10"
     inkscape:pageopacity="0"
     inkscape:pageshadow="2"
     inkscape:window-width="1920"
     inkscape:window-height="1027"
     id="namedview4535"
     showgrid="false"
     inkscape:zoom="0.54047838"
     inkscape:cx="407.81062"
     inkscape:cy="531.68351"
     inkscape:window-x="-8"
     inkscape:window-y="-8"
     inkscape:window-maximized="1"
     inkscape:current-layer="svg4533" />
  <path
     d="m 15.932872,75.74438 c -3,-0.23 -5.834,-1.282 -8.087,-3.006 -0.626,-0.479 -1.554,-1.376 -2.015,-1.948 -0.701,-0.872 -1.875,-2.73701 -1.782,-2.83001 0.05,-0.05 7.984,-0.112 13.668,-0.108 l 5.209,0.004 v -2.646 h -19.78 l -0.091,-0.579 c -0.199,-1.265 -0.03,-3.78 0.353,-5.289 0.195,-0.765 0.413,-1.319 0.887,-2.249 0.695,-1.362 1.409,-2.313 2.575,-3.43 2.6960003,-2.584 6.433,-3.964 10.599,-3.915 1.118,0.014 1.748,0.085 2.811,0.316 1.532,0.335 2.555,0.692 3.818,1.335 1.787,0.91 2.954,1.8 4.113,3.139 l 0.16,0.183 h -14.942 v 2.646 h 16.708 l 0.27,0.761 c 0.657,1.856 0.768,2.547 0.751,4.672 -0.012,1.527 -0.044,1.927 -0.229,2.837 -0.196,0.965 -0.476,1.704 -1.108,2.921 a 12.295,12.295 0 0 1 -2.327,3.17201 c -2.289,2.254 -5.515,3.685 -8.987,3.987 -0.757,0.066 -1.907,0.078 -2.575,0.027 z"
     id="path4485"
     inkscape:connector-curvature="0"
     style="fill:#009800;stroke:#00cc66;stroke-width:0.047" />
  <path
     d="m 31.176872,63.56737 c 0.003,-0.205 0.005,-0.714 0.004,-1.133 0,-0.73 -0.004,-0.924 -0.03,-1.276 a 1.164,1.164 0 0 1 -0.004,-0.13 c 0.005,-0.005 0.037,0.34 0.051,0.555 0.04,0.579 0.04,1.215 0,1.943 -0.022,0.419 -0.027,0.427 -0.021,0.041 z"
     id="path4487"
     inkscape:connector-curvature="0"
     style="fill:#009800;stroke:#00cc66;stroke-width:0.008" />
  <path
     d="m 31.186872,62.66937 c 0,-0.494 -0.003,-0.972 -0.005,-1.062 -0.003,-0.126 -0.002,-0.147 0.004,-0.09 0.039,0.405 0.043,1.35 0.009,1.947 -0.004,0.057 -0.007,-0.301 -0.008,-0.795 z"
     id="path4489"
     inkscape:connector-curvature="0"
     style="fill:#009800;stroke:#00cc66;stroke-width:0.008" />
  <path
     d="m 31.195872,62.61637 a 73.787,73.787 0 0 0 -0.005,-0.798 c -0.002,-0.12 -0.002,-0.135 0.003,-0.07 0.011,0.133 0.018,1.124 0.01,1.327 -0.006,0.152 -0.007,0.07 -0.008,-0.459 z"
     id="path4491"
     inkscape:connector-curvature="0"
     style="fill:#009800;stroke:#00cc66;stroke-width:0.008" />
  <path
     d="m 31.192872,62.88537 a 18.851,18.851 0 0 1 10e-4,-0.823 l 0.005,0.1 0.003,-0.12 c 0.002,-0.105 0.004,-0.114 0.01,-0.075 a 0.648,0.648 0 0 1 0.002,0.12 c -0.003,0.041 -0.008,0.255 -0.01,0.475 a 3.527,3.527 0 0 1 -0.01,0.323 z"
     id="path4493"
     inkscape:connector-curvature="0"
     style="fill:#009800;stroke:#00cc66;stroke-width:0.008" />
  <path
     d="m 31.139872,61.03437 a 7.37,7.37 0 0 0 -0.044,-0.425 l -0.004,-0.03 0.028,0.187 a 7.744,7.744 0 0 1 0.032,0.265 c 0,-0.004 -0.003,-0.007 -0.006,-0.007 -0.003,0 -0.004,0.003 -0.004,0.009 l -10e-4,0.005 z"
     id="path4495"
     inkscape:connector-curvature="0"
     style="fill:#009800;stroke:#00cc66;stroke-width:0.001" />
  <path
     d="m 31.139872,61.02537 -0.008,-0.098 a 8.928,8.928 0 0 0 -0.028,-0.266 13.435,13.435 0 0 1 0.047,0.357 v 0.007 h -0.002 c -0.003,-0.002 -0.007,0 -0.007,0.002 l -10e-4,0.002 z"
     id="path4497"
     inkscape:connector-curvature="0"
     style="fill:#009800;stroke:#00cc66;stroke-width:0.001" />
  <path
     d="m 31.139872,61.01937 -0.004,-0.049 a 9.526,9.526 0 0 0 -0.023,-0.238 c 0.009,0.056 0.037,0.28 0.037,0.29 l -0.003,10e-4 a 0.01,0.01 0 0 0 -0.005,10e-4 z m 0.002,0.041 v -0.002 l 0.001,0.002 v 10e-4 z m -0.002,-0.014 v -0.002 z"
     id="path4499"
     inkscape:connector-curvature="0"
     style="fill:#009800;stroke:#00cc66;stroke-width:0.001" />
  <path
     d="m 57.726872,81.21438 c -0.694,-0.392 -0.925,-1.789 -0.438,-2.654 a 1.237,1.237 0 0 1 2.114,-0.12 c 0.262,0.366 0.355,1.473 0.179,2.116 -0.185,0.673 -1.194,1.03 -1.855,0.658 z"
     id="path4501"
     inkscape:connector-curvature="0"
     style="fill:#cc0000;stroke:#cc0000;stroke-width:0.156" />
  <path
     d="m 43.441872,77.42838 c -0.61,-0.333 -0.704,-2.237 -0.137,-2.772 0.153,-0.145 0.565,-0.263 0.916,-0.263 0.848,0 1.74,0.41 1.662,1.465 -0.254,3.455 -0.82,1.75 -1.592,1.734 -0.312,-0.006 -0.695,-0.08 -0.85,-0.164 z"
     id="path4503"
     inkscape:connector-curvature="0"
     style="fill:#cc0000;stroke:#cc0000;stroke-width:0.154" />
  <path
     d="m 61.895872,80.61638 c 0.015,-0.904 -0.041,-1.249 -0.287,-1.738 a 5.814,5.814 0 0 0 -1.796,-2.08 l -0.609,-0.432 v -2.668 c 0,-2.529 0.014,-2.667 0.268,-2.667 0.555,0 2.928,-0.909 4.29,-1.643 2.616,-1.41101 4.947,-3.24901 7.233,-5.70201 l 1.222,-1.31 1.369,1.021 c 6.311,4.714 10.016,10.07501 11.738,16.98901 0.143,0.573 0.21,1.093 0.149,1.156 -0.061,0.063 -5.396,0.134 -11.854,0.158 l -11.743,0.043 z"
     id="path4505"
     inkscape:connector-curvature="0"
     style="fill:#ffcc00;stroke:#ffcc00;stroke-width:0.142" />
  <path
     d="m 18.691872,80.77738 c 0,0 -1.611,0.786 -1.611,0.711 0,-0.073 0.613,-1.411 0.733,-1.887 0.257,-1.02 0.207,-0.99 2.307,-1.385 2.65,-0.498 4.997,-1.434 7.042,-2.807 1.264,-0.849 3.134,-2.64 4.133,-3.96 0.746,-0.984 2.252,-3.75601 2.252,-4.14501 0,-0.312 0.226,-0.22 1.366,0.56 2.058,1.40901 4.146,2.16901 6.876,2.50301 0.402,0.049 0.775,0.156 0.829,0.238 0.19,0.293 0.107,1.14 -0.131,1.334 -0.128,0.104 -0.158,0.981 -0.523,1.264 -1.213,0.939 -2.21,2.18 -1.775,3.491 0.242,0.729 1.484,1.99 2.37,2.408 0.851,0.4 2.083,0.485 3.04,0.21 1.304,-0.377 1.822,-2.246 2.237,-3.556 0.196,-0.618 0.14,0.617 0,0 -0.235,-1.046 -0.08,-1.038 -1.16,-1.74 l -5.438,-0.211 c 1.478,-1.076 -6.636,-5.69301 -2.3,-6.36101 l 6.772,2.01001 0.827,-0.45001 c 1.34,-0.73 2.964,-1 5.554,-0.924 2.637,0.08 3.633,0.34 4.364,1.14501 0.259,0.285 0.534,0.746 0.612,1.024 0.158,0.567 0.193,5.323 0.04,5.54 -0.053,0.077 0.215,0.725 -0.048,0.883 -0.604,0.366 -1.065,1.477 -1.376,2.071 -0.256,0.49 -1.532,1.176 -1.349,1.768 l 0.186,0.71 -17.169,0.984 c -9.516,0.545 -18.324,1.271 -18.66,-1.428 z"
     id="path4507"
     inkscape:connector-curvature="0"
     style="fill:#ffcc00;stroke:#ffcc00;stroke-width:0.133" />
  <path
     d="m 41.338872,69.39538 c -2.278,-0.53801 -4.282,-1.48801 -6.294,-2.98301 -1.28,-0.95 -1.383,-1.153 -1.383,-2.696 0,-2.136 -0.575,-4.318 -1.747,-6.635 -0.327,-0.646 -0.54,-1.268 -0.487,-1.42 0.052,-0.147 0.577,-0.675 1.167,-1.171 1.637,-1.38 4.436,-2.469 7.128,-2.775 l 0.844,-0.095 0.109,1.376 c 0.06,0.757 0.11,2.054 0.111,2.882 0.004,2.29 0.27,4.098 0.84,5.712 0.994,2.814 2.196,4.379 4.592,5.976 l 1.211,0.808 -0.75,0.429 c -0.413,0.235 -0.973,0.53201 -1.244,0.65801 -0.677,0.315 -2.615,0.284 -4.097,-0.066 z"
     id="path4509"
     inkscape:connector-curvature="0"
     style="fill:#ffcc00;stroke:#ffcc00;stroke-width:0.15700001" />
  <path
     d="m 57.328872,69.10938 c -0.45,-0.43001 -1.195,-0.98401 -1.658,-1.23201 l -0.84,-0.45 0.76,-0.394 c 1.782,-0.925 3.623,-2.568 4.492,-4.009 1.16,-1.923 1.83,-4.973 1.833,-8.334 0.002,-2.222 0.096,-2.997 0.378,-3.099 0.382,-0.139 3.493,-0.091 4.89,0.56 3.938,1.834 4.604,6.096 2.884,9.428 -1.082,2.098 -5.138,5.578 -8.228,7.06 -1.417,0.68001 -2.964,1.25001 -3.39,1.25001 -0.17,0 -0.668,-0.347 -1.121,-0.78 z"
     id="path4511"
     inkscape:connector-curvature="0"
     style="fill:#ffcc00;stroke:#ffcc00;stroke-width:0.146" />
  <path
     d="m 49.329872,64.89537 c -3.294,-0.716 -5.364,-2.615 -6.123,-5.614 -0.384,-1.522 -0.57,-4.253 -0.408,-5.988 0.115,-1.225 0.178,-1.412 0.444,-1.309 2.822,1.094 7.043,1.6 10.473,1.258 1.872,-0.187 4.32,-0.733 5.721,-1.275 0.344,-0.133 0.351,-0.035 0.222,2.962 -0.146,3.392 -0.357,4.472 -1.156,5.942 -1,1.837 -3.58,3.592 -6.025,4.098 -1.225,0.253 -1.695,0.242 -3.148,-0.074 z m -1.803,-14.61 c -4.115,-0.744 -7.89,-2.915 -9.997,-5.749 -1.135,-1.527 -2.377,-4.188 -2.76,-5.914 -0.237,-1.062 -0.597,-5.647 -0.66,-8.387 -0.003,-0.168 0.417,-0.234 1.492,-0.234 h 1.497 v 1.586 c 0,2.325 -0.193,2.25 5.76,2.25 h 4.75 l 0.45,-0.525 c 0.313,-0.363 0.452,-0.753 0.452,-1.263 v -0.738 h 5.426 v 0.702 c 0,0.385 0.168,0.975 0.372,1.31 l 0.37,0.607 h 10.081 l 0.389,-0.493 c 0.257,-0.327 0.387,-0.766 0.387,-1.31 v -0.816 h 2.807 v 1.383 c 0,2.025 -0.335,4.95 -0.754,6.588 -1.49,5.829 -6.154,9.88 -12.695,11.025 -1.934,0.338 -5.43,0.328 -7.367,-0.022 z m 0.939,-22.751 c -0.16,-1.66 -0.122,-1.649 -5.784,-1.649 h -4.852 l -0.46,0.46 c -0.252,0.252 -0.458,0.547 -0.458,0.654 0,0.211 -1.504,0.264 -2.199,0.078 -0.4,-0.107 -0.42,-0.204 -0.42,-1.915 l 10e-4,-1.802 1.636,-0.45 c 1.99,-0.546 4.044,-1.394 5.622,-2.32 0.649,-0.38 1.25,-0.691 1.338,-0.691 0.087,0 1.072,0.366 2.188,0.814 2.286,0.917 6.287,2.15 8.672,2.673 1.386,0.303 2.423,0.347 8.091,0.339 l 6.502,-0.01 v 4.79 h -2.807 v -0.817 c 0,-0.543 -0.13,-0.982 -0.387,-1.31 l -0.388,-0.493 h -5.009 c -5.746,0 -5.607,-0.04 -5.773,1.682 l -0.09,0.938 h -5.33 z m -18.386,4.685 c -0.927,-0.814 -1.213,-1.457 -1.212,-2.723 0,-0.8 0.114,-1.271 0.432,-1.797 0.388,-0.641 1.31,-1.435 1.672,-1.438 0.077,0 0.14,1.472 0.14,3.273 0,1.979 -0.072,3.274 -0.18,3.274 -0.1,0 -0.483,-0.265 -0.852,-0.59 z"
     id="path4513"
     inkscape:connector-curvature="0"
     style="fill:#ffeeaa;stroke:#ffeeaa;stroke-width:0.18700001" />
  <path
     d="m 71.481872,31.22137 c 0.054,-0.77 -0.049,-2.24 0,-3.266 l 0.09,-1.867 0.515,0.266 c 1.243,0.643 2.473,2.266 2.246,3.785 -0.093,0.614 -0.718,1.447 -1.316,2.072 -1.153,1.203 -1.658,0.789 -1.535,-0.99 z m -22.316,33.693 c -2.34,-0.571 -4.269,-1.916 -5.188,-3.615 -0.94,-1.737 -1.157,-2.88 -1.165,-6.165 -0.005,-1.663 0.05,-3.082 0.12,-3.153 0.07,-0.07 0.66,0.042 1.31,0.251 1.733,0.558 2.994,0.788 5.28,0.962 3.21,0.244 5.956,-0.1 9.823,-1.23 l 0.451,-0.133 -0.124,3.07 c -0.068,1.689 -0.211,3.44 -0.318,3.89 -0.519,2.202 -1.995,4.02 -4.232,5.211 -2.06,1.098 -3.987,1.393 -5.957,0.912 z m -1.713,-14.598 c -1.824,-0.347 -3.07,-0.768 -4.81,-1.628 -3.135,-1.548 -5.051,-3.473 -6.588,-6.62 -0.553,-1.131 -1.128,-2.605 -1.278,-3.273 -0.275,-1.22 -0.672,-5.807 -0.672,-7.753 v -1.04 h 2.994 l 0.002,1.262 c 0.004,1.634 0.117,2.014 0.677,2.27 0.302,0.137 2.1,0.21 5.219,0.21 h 4.757 l 0.302,-0.461 c 0.166,-0.254 0.347,-0.801 0.403,-1.217 l 0.101,-0.755 h 5.377 v 0.502 c 0,0.276 0.176,0.866 0.39,1.31 l 0.392,0.807 h 10.026 l 0.329,-0.502 c 0.18,-0.276 0.37,-0.865 0.42,-1.31 l 0.091,-0.807 h 2.758 v 1.735 c 0,6.172 -1.789,10.735 -5.37,13.701 -1.527,1.264 -4.455,2.744 -6.51,3.29 -1.928,0.512 -6.965,0.668 -9.01,0.279 z m 0.97,-22.709 c -0.068,-0.494 -0.754,-0.512 -0.838,-0.647 -0.265,-0.43 -1.035,-0.133 -5.369,-0.603 l -3.895,0.24 -0.085,0.548 c -0.536,0.65 -2.558,0.994 -3.728,0.939 l -0.122,-0.982 -0.053,-1.879 -0.053,-1.878 2.017,-0.606 c 1.11,-0.334 3.049,-1.12 4.308,-1.746 l 2.29,-1.14 2.855,1.035 c 1.57,0.568 3.739,1.288 4.82,1.6 3.84,1.106 4.292,1.152 11.31,1.152 h 6.463 v 2.433 l 0.21,2.81 -1.59,0.604 -1.378,-0.982 -0.164,0.379 c -0.05,-0.444 -0.647,-2.376 -0.827,-2.652 l -4.411,0.637 c -4.466,0 -4.42,-0.262 -4.61,0.23 -0.052,0.139 -0.733,0.113 -0.805,0.59 l -0.262,1.279 -3.203,0.016 -2.913,-0.1 z m -18.288,4.741 c -1.254,-1.104 -1.666,-3.043 -0.961,-4.527 0.307,-0.648 1.315,-1.561 1.722,-1.561 0.155,0 0.216,0.922 0.216,3.274 0,3.555 -0.032,3.646 -0.977,2.814 z"
     id="path4515"
     inkscape:connector-curvature="0"
     style="fill:#ffccaa;stroke:#ffccaa;stroke-width:0.18700001" />
  <path
     d="m 56.929872,30.43437 v -1.742 h 5.613 v 3.485 h -5.613 z"
     id="path4517"
     inkscape:connector-curvature="0"
     style="fill:#80e5ff;stroke:#80e5ff;stroke-width:0.21600001" />
  <path
     d="m 39.904872,30.21237 v -1.52 h 5.613 v 3.04 h -5.613 z"
     id="path4519"
     inkscape:connector-curvature="0"
     style="fill:#80e5ff;stroke:#80e5ff;stroke-width:0.20900001" />
  <path
     d="m 13.992872,75.91538 c -3.989,-0.926 -6.958,-2.89 -8.933,-5.909 l -0.919,-1.40301 9.463,-0.048 9.463,-0.049 v -2.803 h -19.814 l -0.128,-0.68 c -0.17,-0.91 0.05,-3.844 0.383,-5.095 0.872,-3.28 3.502,-6.377 6.77,-7.971 2.884,-1.406 6.645,-1.925 9.612,-1.326 2.95,0.595 6.817,2.354 8.48,4.09 l -0.176,0.505 h -14.856 v 2.807 h 16.765 l 0.453,1.356 c 0.39,1.166 0.454,1.711 0.456,3.882 0.002,2.805 -0.171,3.557 -1.362,5.89301 -0.473,0.928 -1.14,1.782 -2.288,2.93 -1.358,1.357 -1.904,1.756 -3.378,2.467 -0.968,0.466 -2.264,0.984 -2.881,1.15 -1.567,0.423 -5.662,0.54 -7.11,0.204 z"
     id="path4521"
     inkscape:connector-curvature="0"
     style="fill:#00d455;stroke:#00d455;stroke-width:0.18700001" />
  <path
     d="m 15.091872,83.33738 c -0.507,-0.423 -0.549,-1.302 -0.16,-3.345 0.194,-1.014 0.206,-1.39 0.047,-1.448 -0.118,-0.043 -1.046,-0.287 -2.061,-0.543 a 18.3,18.3 0 0 1 -6.406,-3.051 16.129,16.129 0 0 1 -5.51799987,-7.28501 c -0.60700005,-1.607 -0.62000005,-1.711 -0.62800005,-4.638 -0.008,-3.41 0.11500005,-3.945 1.54199992,-6.683 2.002,-3.842 5.874,-6.923 10.436,-8.303 1.49,-0.452 1.987,-0.508 4.572,-0.524 2.28,-0.014 3.2,0.058 4.303,0.338 3.05,0.775 5.689,2.211 8.07,4.393 l 1.23,1.127 1.196,-1.028 c 1.391,-1.194 3.709,-2.377 5.313,-2.712 0.617,-0.13 1.156,-0.261 1.197,-0.294 0.041,-0.032 -0.556,-0.719 -1.327,-1.526 -2.894,-3.029 -4.529,-6.253 -5.19,-10.237 -0.12,-0.723 -0.277,-1.404 -0.35,-1.515 -0.071,-0.11 -0.692,-0.467 -1.378,-0.793 -1.505,-0.714 -2.751,-1.879 -3.458,-3.233 -0.724,-1.388 -0.73,-3.188 -0.014,-4.58 0.859,-1.669 2.485,-3.002 4.533,-3.715 0.296,-0.103 0.129,-0.22 -0.807,-0.562 -0.65,-0.237 -1.239,-0.49 -1.31,-0.562 -0.24,-0.244 -0.085,-3.739 0.236,-5.296 0.89,-4.323 2.687,-7.702 5.701,-10.718 2.422,-2.423 4.975,-4.026 8.247,-5.178 2.378,-0.83799999 4.217,-1.15499999 7.459,-1.28599999 2.546,-0.103 3.197,-0.066 5.025,0.286 2.49,0.479 5.47,1.47499999 7.16,2.39299999 4.862,2.64 8.599,7.135 10.083,12.127 0.548,1.843 0.956,4.396 0.956,5.982 0,1.582 -0.28,1.973 -1.535,2.144 -0.74,0.1 -1.255,0.573 -0.626,0.573 0.581,0 2.232,0.981 3.215,1.911 1.395,1.32 1.84,2.314 1.828,4.088 -0.01,1.694 -0.424,2.691 -1.615,3.894 -0.815,0.823 -2.852,2.08 -3.37,2.08 -0.363,0 -0.474,0.292 -0.818,2.152 -0.744,4.024 -2.274,7.043 -5.082,10.029 -0.771,0.819 -1.357,1.535 -1.301,1.59 0.055,0.055 0.593,0.226 1.194,0.38 1.902,0.484 4.092,1.69 5.365,2.95 2.06,2.04 2.876,4.202 2.652,7.024 -0.128,1.618 -0.128,1.619 0.363,1.843 0.71,0.323 2.377,1.571 4.336,3.247 4.946,4.23 8.72,10.71701 9.457,16.25801 0.22,1.644 0.215,1.68 -0.218,2.14 l -0.44,0.47 -35.842,-0.006 c -34.78,-0.006 -35.854,-0.017 -36.262,-0.358 z m 39.429,-2.116 c 0,-0.027 -0.083,-0.338 -0.185,-0.692 -0.124,-0.432 -0.12,-0.883 0.012,-1.372 0.21,-0.78 1.39,-2.193 2.262,-2.707 l 0.53,-0.314 v -2.815 c 0,-3.246 -0.185,-3.836 -1.423,-4.53001 -2.04,-1.143 -7.523,-0.91 -9.611,0.40801 -0.75,0.473 -0.753,0.48 -0.753,1.66 v 1.186 l 0.923,0.574 c 1.76,1.094 2.493,2.978 1.734,4.454 -1.09,2.12 -3.587,3.008 -5.583,1.986 -0.935,-0.479 -2.06,-1.743 -2.227,-2.504 -0.287,-1.31 0.267,-2.6 1.597,-3.722 0.86,-0.725 0.937,-0.858 0.937,-1.603 v -0.813 h -0.701 c -0.976,-0.003 -3.532,-0.639 -4.778,-1.19 -0.573,-0.25301 -1.548,-0.80401 -2.167,-1.22501 -0.62,-0.42 -1.245,-0.765 -1.389,-0.765 -0.144,0 -0.393,0.332 -0.552,0.737 -0.99,2.52001 -3.738,5.87201 -6.165,7.52001 -2,1.359 -4.568,2.328 -7.878,2.974 -1.183,0.231 -1.28,0.346 -1.525,1.812 l -0.133,0.79 2.12,0.059 c 2.608,0.074 34.955,0.159 34.955,0.092 z m 5.02,-0.402 c 0.382,-0.382 0.35,-1.527 -0.055,-1.974 -0.466,-0.515 -1.647,-0.52 -2.159,-0.009 -0.704,0.705 -0.407,1.926 0.561,2.306 0.406,0.16 1.356,-0.027 1.653,-0.324 z m 23.847,0.326 1.832,-0.121 -0.122,-0.58 c -0.317,-1.494 -1.334,-4.3 -2.143,-5.91 -1.85,-3.682 -4.78,-7.07301 -8.563,-9.91301 l -1.973,-1.482 -2.117,2.034 c -3.075,2.957 -6.065,4.82601 -9.186,5.74301 l -1.17,0.343 0.008,2.526 0.007,2.526 0.734,0.507 c 0.403,0.28 0.963,0.854 1.243,1.278 0.427,0.645 0.508,0.966 0.499,1.971 l -0.011,1.202 9.564,-0.001 c 5.261,-10e-4 10.39,-0.056 11.398,-0.123 z m -37.932,-4.491 c 0.407,-0.537 0.326,-1.335 -0.188,-1.849 -0.498,-0.498 -1.126,-0.58 -1.861,-0.246 -0.824,0.375 -0.852,2.072 -0.04,2.42 0.593,0.253 1.791,0.068 2.089,-0.325 z m -23.489,-1.342 c 2.428,-0.796 3.939,-1.72 5.71,-3.489 1.764,-1.763 2.918,-3.83601 3.386,-6.08301 0.403,-1.931 0.263,-5.045 -0.31,-6.875 l -0.425,-1.357 h -16.78 v -2.432 h 7.484 c 4.38,0 7.483,-0.07 7.483,-0.17 0,-0.425 -2.591,-2.494 -4.096,-3.27 -2.617,-1.353 -4.118,-1.705 -7.222,-1.696 -3.02,0.008 -4.388,0.29 -6.736,1.387 -3.566,1.666 -6.187,4.672 -7.108,8.154 -0.349,1.32 -0.575,4.418 -0.393,5.387 l 0.128,0.685 h 19.815 v 2.432 h -9.448 c -8.025,0 -9.448,0.04 -9.448,0.265 0,0.486 1.862,3.05701 2.903,4.00901 a 14.14,14.14 0 0 0 4.506,2.756 c 2.224,0.837 3.323,1.005 6.155,0.94 2.333,-0.053 2.813,-0.123 4.396,-0.643 z m 39.777,-6.97301 c 2.06,-0.858 3.994,-2.202 6.083,-4.23 2.318,-2.25 3.041,-3.542 3.048,-5.453 0.013,-3.258 -2.127,-5.657 -6.005,-6.731 -1.036,-0.287 -1.402,-0.322 -1.61,-0.154 -0.198,0.161 -0.323,1.072 -0.478,3.492 -0.317,4.945 -0.925,6.724 -3.009,8.807 -0.676,0.676 -1.672,1.476 -2.212,1.777 -0.54,0.301 -0.982,0.592 -0.982,0.646 0,0.054 0.285,0.251 0.634,0.439 0.348,0.188 1.043,0.708 1.543,1.157 0.5,0.448 1.063,0.819 1.25,0.823 0.187,0.005 0.97,-0.253 1.738,-0.573 z m -17.401,-0.96 c 0.557,-0.332 0.99,-0.658 0.965,-0.724 -0.027,-0.066 -0.59,-0.53 -1.254,-1.032 -2.919,-2.207 -4.113,-5.629 -4.123,-11.81 l -0.003,-2.104 h -0.531 c -0.85,0 -3.277,0.68 -4.332,1.215 -0.985,0.499 -2.503,1.77 -2.818,2.358 -0.124,0.232 -0.017,0.656 0.382,1.508 0.703,1.501 1.311,3.864 1.314,5.098 0.004,1.973 0.142,2.303 1.381,3.312 2.105,1.715 4.656,2.736 6.913,2.77 0.916,0.013 1.258,-0.083 2.106,-0.59 z m 8.45,-2.108 c 2.757,-0.65 5.152,-2.485 6.195,-4.747 0.503,-1.093 0.616,-1.618 0.77,-3.598 0.188,-2.423 0.245,-5.03 0.11,-5.03 -0.044,0 -1.16,0.273 -2.48,0.608 -2.336,0.592 -2.501,0.607 -6.235,0.593 -3.712,-0.014 -3.906,-0.033 -6.056,-0.616 -1.222,-0.331 -2.274,-0.55 -2.339,-0.485 -0.064,0.065 -0.11,1.479 -0.103,3.142 0.022,4.365 0.611,6.281 2.466,8.016 1.01,0.945 1.874,1.438 3.32,1.895 1.76,0.557 2.722,0.607 4.351,0.222 z m 3.225,-14.775 c 6.635,-1.62 10.82,-5.872 12.064,-12.258 0.17,-0.875 0.358,-2.79 0.418,-4.256 l 0.107,-2.666 h -3.186 l -0.095,0.839 c -0.052,0.462 -0.233,1.05 -0.403,1.31 l -0.308,0.47 h -9.738 l -0.361,-0.795 c -0.199,-0.437 -0.363,-1.027 -0.365,-1.31 l -0.004,-0.514 h -5.8 v 0.464 c 0,0.255 -0.138,0.808 -0.306,1.23 l -0.307,0.765 -4.947,-0.06 c -5.822,-0.071 -5.478,0.07 -5.478,-2.248 v -1.46 h -3.368 v 1.178 c 0,2.029 0.368,6.15 0.679,7.603 0.62,2.895 1.964,5.314 4.167,7.501 1.254,1.244 1.981,1.789 3.298,2.467 2.058,1.06 4.119,1.77 5.824,2.005 1.818,0.252 6.637,0.094 8.109,-0.265 z m -24.696,-20.77 c 0,-3.316 -0.016,-3.462 -0.368,-3.462 -0.496,0 -1.579,0.978 -1.95,1.76 -0.39,0.823 -0.388,2.585 0.004,3.41 0.351,0.741 1.496,1.753 1.982,1.753 0.306,0 0.332,-0.273 0.332,-3.461 z m 41.695,2.485 c 1.21,-1.223 1.432,-2.746 0.641,-4.413 -0.308,-0.65 -1.582,-1.72 -2.047,-1.72 -0.203,0 -0.252,0.68 -0.252,3.46 v 3.462 h 0.438 c 0.268,0 0.744,-0.309 1.22,-0.79 z m -10.264,-2.018 v -1.496 h -5.987 v 2.993 h 5.987 z m -17.025,-0.093 v -1.403 h -5.987 v 2.806 h 5.987 z m 8.504,-2.246 c 0.098,-0.78 0.228,-1.086 0.536,-1.262 0.286,-0.163 1.813,-0.252 5.117,-0.296 l 4.709,-0.064 0.318,0.487 c 0.176,0.267 0.362,0.864 0.414,1.326 l 0.095,0.839 h 3.131 v -5.205 l -7.062,-0.083 c -8.402,-0.099 -8.006,-0.03 -15.635,-2.705 l -2.96,-1.037 -2.372,1.14 c -1.305,0.628 -3.256,1.426 -4.337,1.774 l -1.964,0.633 -0.054,1.931 c -0.04,1.419 0.01,1.971 0.187,2.084 0.133,0.084 0.788,0.153 1.457,0.154 1.187,0.002 1.227,-0.015 1.674,-0.67 l 0.457,-0.672 4.687,0.069 c 3.238,0.048 4.814,0.14 5.095,0.298 0.31,0.174 0.439,0.477 0.536,1.26 l 0.129,1.029 h 5.714 z"
     id="path4523"
     inkscape:connector-curvature="0"
     style="fill:#373e48;stroke:#373e48;stroke-width:0.18700001" />
  <path
     d="m 92.190113,33.95606 c -0.006,-0.009 -0.0317,-1.02 -0.0545,-2.246 l -0.0437,-2.23 -1.4712,-0.08 c -2.488348,-0.14 -2.881247,-0.194 -3.616839,-0.495 -1.044454,-0.429 -1.697102,-0.83 -2.341018,-1.439 -1.013896,-0.959 -1.522481,-1.867 -1.675273,-2.99 -0.126601,-0.94 -0.122235,-14.79299 0.0054,-15.49699 0.403812,-2.222 3.144276,-4.028 6.57886,-4.34 1.13505,-0.102 25.625697,-0.157 32.743697,-0.073 l 5.51584,0.065 0.7356,0.178 c 1.77242,0.428 2.93365,1.1 3.80894,2.203 0.42017,0.53 1.07828,1.741 1.21143,2.233 0.0851,0.31 0.11132,1.497 0.1397,6.30399 0.0196,3.256 0.003,6.732 -0.0349,7.722 l -0.0709,1.802 -0.33396,0.636 c -0.59699,1.14 -1.433,2.026 -2.38795,2.531 -0.73997,0.392 -1.70366,0.767 -2.19041,0.853 -0.81854,0.143 -4.10797,0.215 -14.5918,0.317 l -10.47947,0.102 -2.64769,1.017 a 318.55304,291.88 0 0 1 -3.125727,1.188 c -0.26192,0.095 -0.7094,0.268 -0.99315,0.386 -0.66576,0.276 -1.12085,0.46 -2.23298,0.897 a 54.97299,50.37 0 0 0 -1.60869,0.667 c -0.63956,0.28 -0.80545,0.338 -0.83929,0.29 z"
     id="path4525"
     style="fill:#373e48;fill-opacity:1;stroke:#4d4d4d;stroke-width:0.07208382"
     inkscape:connector-curvature="0" />
  <text
     style="font-weight:400;font-size:10.58300018px;line-height:1.25;font-family:sans-serif;letter-spacing:0;word-spacing:0;stroke:#007e00;stroke-width:0.26499999;stroke-opacity:0.2713568"
     x="85.651878"
     y="16.656914"
     font-weight="400"
     font-size="10.583"
     letter-spacing="0"
     word-spacing="0"
     id="text4531">
    <tspan
       x="85.651878"
       y="16.656914"
       font-size="4.939"
       id="tspan4529"
       style="font-style:normal;font-variant:normal;font-weight:normal;font-stretch:normal;font-size:4.93900013px;font-family:Century;-inkscape-font-specification:Century;fill:#00f600;stroke:#007e00;stroke-opacity:0.2713568">01110110 01110100</tspan>
  </text>
  <rect
     style="fill:#ffcc00;fill-opacity:0.85427091;stroke:#ffcc00;stroke-width:0.069;stroke-miterlimit:4;stroke-dasharray:none;stroke-opacity:1"
     id="rect4553"
     width="7.3430319"
     height="1.3462225"
     x="22.111849"
     y="62.05368" />
  <rect
     style="fill:#ffcc00;fill-opacity:0.85427091;stroke:#ffcc00;stroke-width:0.069;stroke-miterlimit:4;stroke-dasharray:none;stroke-opacity:1"
     id="rect4553-5"
     width="7.3430319"
     height="1.3462225"
     x="10.006311"
     y="62.05368" />
  <rect
     style="fill:#ffcc00;fill-opacity:0.85427091;stroke:#ffcc00;stroke-width:0.069;stroke-miterlimit:4;stroke-dasharray:none;stroke-opacity:1"
     id="rect4553-5-4"
     width="7.3430319"
     height="1.3462225"
     x="9.6822815"
     y="70.743423" />
  <text
     style="font-weight:400;font-size:10.58300018px;line-height:1.25;font-family:sans-serif;letter-spacing:0;word-spacing:0;stroke:#007e00;stroke-width:0.26499999;stroke-opacity:0.2713568"
     x="85.516731"
     y="11.844093"
     font-weight="400"
     font-size="10.583"
     letter-spacing="0"
     word-spacing="0"
     id="text4531-3">
    <tspan
       x="85.516731"
       y="11.844093"
       font-size="4.939"
       id="tspan4529-5"
       style="font-style:normal;font-variant:normal;font-weight:normal;font-stretch:normal;font-size:4.93900013px;font-family:Century;-inkscape-font-specification:Century;fill:#00f600;stroke:#007e00;stroke-width:0.26499999;stroke-opacity:0.2713568">01100100 01100101</tspan>
  </text>
  <text
     style="font-weight:400;font-size:10.58300018px;line-height:1.25;font-family:sans-serif;letter-spacing:0;word-spacing:0;stroke:#007e00;stroke-width:0.26499999;stroke-opacity:0.2713568"
     x="85.681122"
     y="21.28801"
     font-weight="400"
     font-size="10.583"
     letter-spacing="0"
     word-spacing="0"
     id="text4531-6">
    <tspan
       x="85.681122"
       y="21.28801"
       font-size="4.939"
       id="tspan4529-2"
       style="font-style:normal;font-variant:normal;font-weight:normal;font-stretch:normal;font-size:4.93900013px;font-family:Century;-inkscape-font-specification:Century;fill:#00f600;stroke:#007e00;stroke-width:0.26499999;stroke-opacity:0.2713568">01100001 01101100</tspan>
  </text>
  <text
     style="font-weight:400;font-size:10.58300018px;line-height:1.25;font-family:sans-serif;letter-spacing:0;word-spacing:0;stroke:#007e00;stroke-width:0.26499999;stroke-opacity:0.2713568"
     x="85.811432"
     y="25.903053"
     font-weight="400"
     font-size="10.583"
     letter-spacing="0"
     word-spacing="0"
     id="text4531-6-3">
    <tspan
       x="85.811432"
       y="25.903053"
       font-size="4.939"
       id="tspan4529-2-2"
       style="font-style:normal;font-variant:normal;font-weight:normal;font-stretch:normal;font-size:4.93900013px;font-family:Century;-inkscape-font-specification:Century;fill:#00f600;stroke:#007e00;stroke-width:0.26499999;stroke-opacity:0.2713568">01100101 01110011</tspan>
  </text>
</svg>
