<svg width="400" height="400" xmlns="http://www.w3.org/2000/svg">
    <g fill-rule="evenodd" transform='translate(0 40)'>
        <rect x="100" y="100" width="200" height="60" fill="#fbfbfb"/>
        <path d="M107.069 7.079c-.456.23-.882.714-.948 1.076-.065.361-.319 1.105-.563 1.654-.245.548-.615 1.596-.823 2.327-.208.732-.593 2.078-.856 2.993-3.436 11.943-3.419 25.518.043 35.896.832 2.493.821 2.559-.69 4.224-1.756 1.935-5.666 7.289-7.367 10.088-.222.365-1.302 2.46-2.401 4.655-1.908 3.812-2.245 4.625-3.653 8.811-4.886 14.529-4.313 39.208 1.334 57.462.527 1.704.958 3.163.958 3.242 0 .079-7.07.147-15.711.151-14.714.006-18.124.117-30.008.975-11.93.861-33.718 4.009-33.494 4.839.121.449 1.985.346 5.564-.307 6.064-1.106 14.33-2.218 21.114-2.84a400.17 400.17 0 0 0 6.816-.689c7.644-.863 33.322-1.54 41.352-1.089l4.776.268 1.458 3.315c.802 1.824 1.458 3.409 1.458 3.523 0 .114-1.833.305-4.073.424-11.02.587-15.66.888-18.703 1.214-1.829.196-5.42.578-7.98.85-17.463 1.855-38.432 5.718-49.951 9.201-2.652.802-1.268 1.324 1.583.596 1.365-.348 3.754-.945 5.309-1.327 1.554-.381 3.35-.845 3.99-1.031.64-.186 1.912-.478 2.826-.648.914-.17 2.71-.523 3.99-.785 1.28-.261 3.225-.644 4.322-.849 1.098-.206 2.669-.519 3.492-.695 1.441-.309 2.407-.465 9.31-1.502 12.718-1.912 29.19-3.503 41.605-4.017l5.196-.215.82 1.625c5.327 10.57 17.519 21.193 31.464 27.416 3.384 1.51 4.206 1.836 8.03 3.19 7.749 2.743 18.278 5.087 28.928 6.439 3.834.487 3.919.529 2.782 1.38-5.569 4.167-9.684 10.695-12.039 19.094-.42 1.498-2.189 2.533-7.036 4.116-16.414 5.359-30.762.147-39.792-14.457-6.941-11.226-16.995-17.499-26.747-16.688-7.688.64-7.064 4.546 1.425 8.916 5.786 2.979 13.909 10.723 13.909 13.262 0 .181.113.329.25.329.138 0 .62.711 1.073 1.58 3.121 5.991 6.595 11.181 9.736 14.547 8.902 9.538 23.921 13.926 38.708 11.31 1.495-.264 3.71-.582 4.924-.706l2.206-.226-.115 19.416c-.111 18.922-.133 19.464-.831 21.322-1.531 4.077-4.259 6.853-9.153 9.315-4.837 2.433-5.817 5.825-1.963 6.792 6.44 1.617 19.162-2.037 24.041-6.905 5.272-5.259 5.644-7.514 5.376-32.554-.201-18.682-.015-22.862 1.213-27.296.998-3.606 2.828-6.62 4.02-6.62.638 0 .648.525.648 34.83 0 40.904.076 40.017-3.697 43.036-3.682 2.946-4.026 3.371-4.2 5.183-.807 8.399 18.947 2.325 24.082-7.404 2.452-4.645 2.239-.862 2.355-41.896.101-35.435.13-36.94.726-37.722.828-1.086 2.718-1.123 3.767-.074l.741.741.167 37.314c.188 42.124-.097 37.934 2.894 42.526 5.51 8.458 21.932 13.712 23.504 7.52.541-2.134-.097-3.27-3.117-5.546-2.06-1.552-3.379-4.341-4.185-8.848-.604-3.379-.721-68.805-.123-69.174 1.249-.772 4.097 4.96 5.045 10.154.187 1.021.43 11.816.552 24.439l.218 22.61.88 2.288c2.058 5.348 6.953 9.933 12.341 11.557 4.452 1.342 6.373 1.672 10.702 1.84l4.655.181 1.299-1.135c1.949-1.703.81-4.299-2.53-5.767-4.208-1.85-7.356-5.449-9.316-10.653-.738-1.959-.743-2.099-.95-28.901-.222-28.863-.309-30.44-1.952-35.322-2.261-6.715-5.449-11.307-11.085-15.964-1.372-1.134-1.182-1.253 2.672-1.68 4.55-.504 13.71-1.912 14.879-2.287.366-.117 1.563-.404 2.66-.638 13.688-2.909 25.509-8.028 34.194-14.805 3.777-2.948 11.525-11.329 11.525-12.467 0-.133.212-.479.471-.767.259-.289 1.301-2.096 2.316-4.017l1.846-3.491 5.248.056c12.298.132 33.265 2.244 48.972 4.934 1.738.297 4.057.681 5.154.853 1.097.172 2.219.396 2.494.498.274.103 1.621.397 2.992.655 1.372.258 3.467.685 4.655.949 2.784.618 4.977 1.155 12.133 2.971 2.46.624 3.396.007 1.076-.71-1.574-.487-9.507-2.516-11.047-2.826a391.78 391.78 0 0 1-4.157-.895c-2.971-.652-4.312-.912-11.305-2.19-13.245-2.42-30.022-4.275-46.384-5.126-4.023-.21-7.689-.407-8.146-.44-1.062-.075-1.034-.601.22-4.042l.967-2.652 1.485-.286c4.087-.787 38.387-.222 46.871.771 1.554.182 4.547.488 6.65.68 6.748.615 15.033 1.729 21.114 2.838 3.602.657 5.263.75 5.486.307.407-.808-21.171-3.945-33.25-4.833-11.739-.864-15.259-.975-31.006-.981-12.01-.005-16.875-.112-16.875-.372 0-.2.209-1.135.464-2.078 3.983-14.731 4.71-40.87 1.504-54.082-2.652-10.929-7.937-20.94-15.582-29.516-1.781-1.998-2.946-3.571-2.808-3.793 1.538-2.489 2.708-15.122 2.008-21.675-.638-5.968-2.051-13.32-2.856-14.853-.147-.28-.379-1.028-.515-1.662-.135-.634-.365-1.303-.511-1.486-.145-.183-.399-.856-.564-1.496-.456-1.767-1.32-2.065-5.412-1.865-10.357.504-23.284 5.647-38.355 15.259-3.557 2.269-3.627 2.296-4.987 1.953-23.509-5.928-55.519-5.736-79.185.474-1.098.288-2.308.6-2.69.692-.477.116-1.623-.45-3.657-1.808-12.824-8.559-25.508-14.277-35.522-16.016-4.46-.775-7.948-.872-9.167-.255M249.21 91.77c.549.155 1.881.381 2.96.503 1.08.123 2.277.345 2.661.495.383.149 1.696.59 2.917.979 9.216 2.937 19.274 13.574 22.554 23.853.398 1.247.859 2.61 1.025 3.03 1.255 3.174 1.051 16.079-.364 23.011-3.332 16.331-12.127 26.315-27.929 31.705-5.657 1.93-13.963 3.54-21.779 4.221-12.235 1.067-45.832 1.272-54.863.335-9.347-.969-12.87-1.431-17.789-2.33-13.033-2.384-25.171-8.003-31.59-14.627-7.369-7.604-11.06-16.546-11.993-29.056-.512-6.873.173-13.381 1.712-16.262.17-.317.309-.753.309-.967 0-.68 2.436-5.343 3.99-7.636 5.362-7.917 10.309-12.083 18.121-15.263 5.435-2.213 20.685-2.813 38.238-1.505 9.779.728 29.652 1.047 34.081.547 3.355-.379 12.539-.98 20.782-1.361 5.788-.267 15.508-.079 16.957.328M94.276 185.408c.876.574 1.079 1.73.421 2.389-1.157 1.156-4.35-.844-3.596-2.252.445-.832 2.011-.9 3.175-.137m5.486 3.958c2.869 1.483 2.116 5.033-.777 3.661-1.716-.815-2.338-2.46-1.344-3.558.668-.738.874-.748 2.121-.103m7.108 7.501c1.079 1.282 1.384 2.45.91 3.49-.808 1.774-3.954.479-4.533-1.866-.629-2.549 1.893-3.679 3.623-1.624m6.131 7.762c1.319.682 2.27 2.58 1.864 3.717-.965 2.704-5.134.733-5.138-2.428-.002-1.65 1.462-2.226 3.274-1.289m9.515 8.35c1.4 1.399 1.453 1.902.321 3.033-1.338 1.339-3.738.578-5.049-1.601-1.504-2.5 2.459-3.701 4.728-1.432m31.311 1.365c-.116.848-.211 1.821-.211 2.161 0 .787-1.522.846-2.586.101-1.671-1.17-.279-3.805 2.011-3.805.996 0 .997.003.786 1.543m-20.581 1.857c2.075 1.948-.359 4.266-3.379 3.219-2.308-.8-2.748-3.126-.751-3.971 1.074-.455 3.271-.055 4.13.752m11.574.076c.449.449.816 1.055.816 1.346 0 2.167-4.764 2.977-6.063 1.03-1.542-2.309 3.176-4.446 5.247-2.376" fill="#1d1d1d"/>
        <path d="M91.557 185.707c-.214.556.331 1.353 1.267 1.854.654.35 1.939-.119 1.939-.707 0-1.214-2.796-2.215-3.206-1.147m6.199 4.964c0 1.795 2.275 2.947 3.324 1.682.651-.784-1.043-2.827-2.344-2.827-.896 0-.98.099-.98 1.145m-17.092.923c-.292.68-.533 1.428-.535 1.662-.002.235-.449 1.848-.994 3.585-1.618 5.163-.596 8.287 2.459 7.52 2.973-.746 2.985-3.107.066-12.507l-.464-1.497-.532 1.237m23.298 4.804c-.584.585-.195 2.767.644 3.606 2.148 2.148 4.032-.668 1.921-2.872-.857-.895-2.06-1.239-2.565-.734m6.678 8.45c-1.312.764-.211 3.485 1.737 4.292 1.427.591 2.069 0 1.937-1.785-.144-1.947-2.213-3.358-3.674-2.507m7.797 7.687c-.946.946-.275 2.459 1.497 3.374 1.362.704 1.862.693 2.541-.058 1.649-1.822-2.294-5.06-4.038-3.316m32.935 1.245c-.953.795-.957 1.83-.01 2.494 1.242.869 1.921.671 1.926-.563.002-.595.095-1.418.205-1.829.259-.967-1.011-1.028-2.121-.102m-21.53 1.922c-1.84.452-2.06 2.085-.416 3.088 2.32 1.414 5.264-.148 3.814-2.023-.315-.407-2.54-1.451-2.699-1.267-.019.021-.333.112-.699.202m11.145.321c-2.412 1.029-1.296 3.428 1.593 3.428 1.985 0 3.202-1.905 1.905-2.981-.565-.47-2.781-.753-3.498-.447m56.343 51.424c-.011 18.538-.408 20.459-5.287 25.587-1.811 1.903-1.843 2.202-.432 4.001 3.481 4.438 4.894 11.112 4.897 23.135l.001 5.123-8.728-.176c-5.254-.106-7.868-.067-6.567.099 1.188.151 6.52.342 11.849.424l9.687.15.16-8.863c.125-6.937.277-9.225.699-10.526.297-.915.542-1.94.544-2.279.008-1.413 3.963-8.78 4.451-8.292.114.114.207-.061.207-.39s-.832-1.437-1.849-2.462c-5.034-5.074-5.25-6.07-5.39-24.914l-.117-15.727-1.752.07c-.963.039-1.889-.013-2.057-.117-.185-.114-.31 5.901-.316 15.157m23.784-.902c0 19.803.494 21.844 6.444 26.64.959.773 1.536.734 1.536-.104a.49.49 0 0 1 .499-.479c.274 0 .498-.201.498-.447 0-.921 5.488-5.538 6.583-5.538.175 0 .513-.235.752-.522.238-.287.686-.456.996-.375 1.08.283.306-.968-.86-1.389-3.03-1.096-7.444-5.118-8.939-8.144-1.931-3.913-1.958-4.086-2.102-13.567-.102-6.701-.237-8.907-.552-9.028-.229-.088-1.415-.267-2.636-.398l-2.219-.237v13.588m-46.606-12.934l-1.884.12-.111 9.111c-.082 6.722-.22 9.221-.526 9.528-.229.228-.416.635-.416.904 0 2.826-5.316 8.814-9.578 10.789-1.495.692-1.976 1.556-.868 1.556.259 0 .471.15.471.333 0 .183.233.332.518.332.285 0 .426.15.313.333-.113.183.125.332.532.332 1.207 0 6.95 4.896 6.95 5.925 0 .171.224.498.498.725.275.228.499.284.5.124 0-.159.88-.877 1.955-1.594 4.678-3.123 5.027-4.798 5.027-24.168v-14.594l-.749.062c-.411.035-1.596.117-2.632.182m70.269 8.606c.068 3.599.271 6.562.476 6.943.196.366.864 1.708 1.483 2.982 1.431 2.945 4.416 6.015 7.113 7.317 3.53 1.703 5.033 3.77 4.193 5.764-.394.935-2.627 2.724-3.401 2.724-.247 0-1.392.616-2.545 1.37-3.111 2.033-5.058 4.53-7.096 9.104-.808 1.813-1.36 17.715-.781 22.517.098.812-.016.926-1.107 1.103-.669.109-1.89.334-2.713.5-1.685.34-8.068 1.185-11.23 1.485l-2.086.198.091-11.995.091-11.996-1.496.193c-2.949.379-2.934.369-3.177 1.99-.124.824-.345 1.574-.493 1.665-.147.091-.372 1.138-.5 2.328-.127 1.189-.363 2.244-.524 2.343-.162.1-.294 3.742-.294 8.093v7.911l-2.743.214c-1.508.117-4.314.231-6.234.254-1.92.022-4.464.161-5.653.308-1.319.163.754.207 5.32.113 4.115-.084 8.23-.296 9.144-.472.915-.175 3.832-.464 6.484-.643 7.25-.487 11.958-1.127 22.111-3.003 2.012-.372 4.182-.76 4.822-.862.64-.102 1.463-.305 1.828-.45.366-.145 1.563-.445 2.66-.667a115.02 115.02 0 0 0 3.824-.856c1.006-.248 2.577-.625 3.491-.837.915-.212 1.805-.519 1.979-.683.174-.164.559-.298.857-.298 1.591 0 12.299-4.052 17.619-6.668 14.666-7.212 21.589-16.21 18.945-24.627-.694-2.211-1.263-3.51-1.827-4.176-.183-.216-.844-1.113-1.469-1.995-5.229-7.376-20.466-15.154-38.597-19.702-2.286-.574-4.606-1.178-5.154-1.343-1.661-.499-9.318-1.947-11.753-2.223l-1.777-.201.119 6.278m-92.159-5.635c-22.913 3.658-44.886 13.099-52.541 22.577-11.056 13.687 2.508 28.988 33.589 37.891 1.554.445 3.283.961 3.841 1.146.558.185 1.68.482 2.494.66.813.178 2.451.541 3.64.806 3.763.839 7.091 1.533 8.899 1.855.963.171 1.876.389 2.029.484.697.43 4.95.867 5.709.587.673-.249.496-.312-1.011-.358-1.005-.031-2.331-.166-2.947-.3l-1.12-.244.055-9.305c.065-10.835-.104-11.953-2.578-17.119-.306-.64-.632-1.239-.724-1.33-.091-.092-.726-.864-1.41-1.716-1.638-2.039-3.978-3.716-6.237-4.469-5.778-1.929-5.562-5.101.554-8.156 4.112-2.054 6.487-4.251 8.126-7.517l1.129-2.249.112-6.733c.092-5.476.03-6.724-.332-6.688a30.07 30.07 0 0 0-1.277.178m19.553 44.555c-.087.335-.12 2.479-.074 4.765.046 2.286 0 7.261-.103 11.056l-.186 6.899-1.864.039-1.864.039 1.662.259c.915.143 3.196.336 5.071.429l3.408.169.068-5.372c.086-6.826-.064-10.876-.429-11.568-.158-.299-.328-1.381-.378-2.404-.051-1.024-.26-1.927-.466-2.007-.205-.08-.474-.682-.597-1.336-.208-1.11-.306-1.191-1.455-1.195-.677-.003-1.548-.09-1.934-.193-.501-.135-.747-.014-.859.42m-3.592 1.606c0 .274.242.499.539.499.442 0 .465-.09.126-.499-.228-.274-.471-.499-.54-.499-.069 0-.125.225-.125.499m-6.983 20.417c2.074.518 5.985.769 5.985.385 0-.194-.426-.353-.947-.353-.521 0-2.13-.072-3.575-.161-1.89-.116-2.3-.08-1.463.129" fill="#94d1e8"/>
        <path d="M237.66 91.341c.413.079 1.012.076 1.33-.007.318-.083-.021-.148-.752-.145-.732.004-.992.072-.578.152m-110.654 10.322l-2.151 2.244 2.244-2.152c1.234-1.183 2.244-2.193 2.244-2.244 0-.245-.338.067-2.337 2.152m25.679 13.898c-2.564.806-7.049 5.031-7.049 6.64 0 .124-.214.697-.476 1.273-3.072 6.757-1.197 17.686 3.784 22.054 10.445 9.16 21.957-8.426 15.274-23.333-.246-.549-.525-1.073-.621-1.164-.096-.092-.591-.781-1.1-1.532-2.304-3.4-6.354-5.025-9.812-3.938m89.648.136c-1.914.668-3.99 2.199-4.97 3.665-.43.643-.858 1.245-.951 1.336-.314.309-1.31 2.482-1.904 4.157-.889 2.501-.854 11.296.053 13.632 5.195 13.376 17.242 12.517 20.985-1.496 3.121-11.682-4.69-24.27-13.213-21.294m-90.454 5.335c2.071 1.263 2.348 3.777.606 5.518-2.972 2.972-7.698-.501-5.616-4.127 1.154-2.012 3.104-2.553 5.01-1.391m91.04.293c2.955 1.802 1.656 6.023-1.852 6.023-2.368 0-3.818-3.193-2.316-5.098 1.262-1.602 2.579-1.894 4.168-.925m39.12 11.011c0 .64.068.902.152.582a2.72 2.72 0 0 0 0-1.164c-.084-.32-.152-.058-.152.582m-85.893 18.082c-2.817 2.612-1.49 6.765 2.264 7.088 2.934.253 4.64-1.545 4.312-4.544-.333-3.041-4.36-4.598-6.576-2.544m-6.941 12.993c-1 1.205 1.094 4.667 3.874 6.403 5.376 3.359 12.172 1.498 15.062-4.124 1.647-3.205-.62-3.828-2.444-.672-3.349 5.798-11.296 5.246-14.576-1.011-.61-1.164-1.273-1.37-1.916-.596m-10.236 16.702c.32.083.844.083 1.164 0 .32-.084.058-.152-.582-.152s-.902.068-.582.152m44.888 0c.32.083.844.083 1.164 0 .32-.084.058-.152-.582-.152s-.902.068-.582.152m-37.573.332c.32.084.844.084 1.164 0 .32-.083.058-.152-.582-.152s-.902.069-.582.152m29.098.006c.414.08 1.012.077 1.33-.006.318-.084-.02-.149-.752-.145-.731.004-.992.072-.578.151" fill="#ab5c53"/>
        <path d="M146.467 95.425c-14.854 2.203-27.36 14.179-30.734 29.43-.73 3.299-.267 14.758.666 16.502.17.318.309.862.309 1.209 0 .736 1.225 4.965 1.682 5.809.172.317.313.733.313.923 0 .562 2.552 5.544 3.83 7.477 1.686 2.551 5.969 7.143 8.3 8.9.187.141.664.523 1.062.849.398.326 1.258.881 1.912 1.233.654.352 1.189.756 1.189.897 0 .141.214.257.475.257s.673.187.914.416c.561.53 4.175 2.282 6.757 3.275 1.097.422 2.145.869 2.328.994.183.124.851.337 1.485.473.634.136 1.382.367 1.663.514 1.373.721 10.492 2.714 15.971 3.491 17.089 2.423 59.257 2.415 74.812-.015 10.665-1.665 18.477-4.378 24.948-8.661 4.207-2.786 9.456-8.326 10.857-11.46.123-.274.309-.573.414-.665 1.004-.876 3.807-8.497 4.708-12.801 2.089-9.976 2.028-16.924-.208-23.726-2.812-8.554-11.609-18.914-18.94-22.307-5.384-2.492-8.739-3.096-18.121-3.262-7.797-.138-10.321-.019-23.109 1.086-16.121 1.394-26.531 1.395-43.059.004l-9.809-.823c-4.533-.378-18.108-.391-20.615-.019m12.339 12.16c12.555 5.965 15.965 29.413 6.161 42.366-7.532 9.952-20.076 7.862-25.895-4.315-9.446-19.765 3.931-45.558 19.734-38.051m92.353-.476c13.009 4.755 17.282 29.512 7.34 42.531-10.541 13.803-27.274 4.984-29.045-15.309-1.539-17.63 9.629-31.636 21.705-27.222m-96.79 7.843c.505.076 1.253.074 1.662-.005.409-.079-.004-.141-.919-.139-.914.003-1.249.067-.743.144m89.438-.001a7.27 7.27 0 0 0 1.829 0c.503-.076.091-.138-.914-.138-1.006 0-1.418.062-.915.138m-94.859 2.114l-1.151 1.021 1.247-.894c1.102-.791 1.46-1.149 1.151-1.149-.052 0-.613.46-1.247 1.022m88.16 1.816c-.567.646-1.032 1.275-1.032 1.397 0 .121.114.079.252-.095.139-.174.691-.802 1.226-1.397.536-.594.887-1.08.78-1.08-.106 0-.658.529-1.226 1.175m4.151 2.463c.565.135 1.238.355 1.497.49.258.134.179.008-.176-.28-.355-.288-1.028-.508-1.496-.489-.783.031-.769.054.175.279m-88.231 2.679c0 .64.069.902.152.582a2.72 2.72 0 0 0 0-1.164c-.083-.32-.152-.058-.152.582m103.453 7.482c0 1.828.056 2.534.124 1.568.067-.966.066-2.463-.002-3.325-.068-.863-.123-.072-.122 1.757m-23.285.166c0 1.371.058 1.932.13 1.247.072-.686.072-1.808 0-2.494-.072-.686-.13-.125-.13 1.247m-67.093 4.175c-.125.667-.161 1.279-.08 1.361.082.081.251-.399.376-1.066s.161-1.28.08-1.361c-.082-.081-.251.398-.376 1.066m70.566 7.961c.193.366.919 1.189 1.613 1.829 1.147 1.057.169-.201-1.808-2.328-.086-.091.003.133.195.499m10.38 4.156c-.685.22-.714.272-.166.295.366.015.889-.117 1.164-.295.582-.376.178-.376-.998 0m-92.847.568c.413.08 1.012.077 1.33-.007.318-.083-.021-.148-.752-.144-.732.003-.992.072-.578.151m90.108 0c.413.08 1.012.077 1.33-.007.318-.083-.021-.148-.752-.144-.732.003-.992.072-.578.151m-43.606.97c5.067 2.404 1.737 10.394-3.433 8.241-2.043-.85-2.868-2.016-2.899-4.093-.051-3.411 3.283-5.595 6.332-4.148m-10.048 13.292c.285.109.855.871 1.265 1.693 2.891 5.788 10.712 5.497 13.969-.519 1.616-2.986 4.116-1.042 2.566 1.996-3.915 7.674-15.417 7.804-19.296.218-1.238-2.419-.476-4.145 1.496-3.388" fill="#f3cbb3"/>
        <path d="M108.978 6.561c.777.07 2.049.07 2.826 0 .777-.07.141-.127-1.413-.127-1.555 0-2.191.057-1.413.127m171.238 0c.777.07 2.049.07 2.826 0 .778-.07.142-.127-1.413-.127-1.554 0-2.19.057-1.413.127m-89.11 12.959a4.751 4.751 0 0 0 1.496 0c.411-.079.075-.144-.748-.144s-1.16.065-.748.144m13.965 0a4.751 4.751 0 0 0 1.496 0c.411-.079.075-.144-.748-.144s-1.16.065-.748.144M148.296 92.1c-3.175.407-6.071.987-6.729 1.348-.317.175-.818.318-1.113.318-.295 0-1.008.213-1.584.474-.576.261-1.796.804-2.71 1.206-4.897 2.154-10.167 7.058-15.003 13.962-3.483 4.971-6.77 15.476-6.031 19.27.097.497.185.163.219-.831.237-6.895 5.14-16.224 12.256-23.322 6.896-6.877 13.22-9.122 26.347-9.355 7.419-.131 9.573-.028 22.943 1.098 16.467 1.387 26.983 1.385 43.059-.005 12.788-1.105 15.312-1.224 23.109-1.086 9.382.166 12.737.77 18.121 3.262 9.484 4.389 19.041 17.74 20.577 28.743.076.549.102.1.058-.997-.13-3.217-.992-6.835-2.388-10.026-.252-.576-.458-1.119-.458-1.206 0-.366-3.094-5.735-3.363-5.837a.503.503 0 0 1-.294-.443c0-.648-3.76-5.039-6.619-7.729l-2.34-2.203c-.298-.281-1.135-.872-1.86-1.312-.725-.441-1.392-.885-1.484-.986-.362-.4-4.365-2.175-5.652-2.506a11.862 11.862 0 0 1-1.497-.504c-.785-.343-3.674-.9-7.148-1.377-3.051-.42-24.697-.142-27.099.347-6.364 1.297-40.184 1.301-46.551.005-2.102-.428-23.873-.678-26.766-.308m160.689 4.326c0 .823.065 1.159.144.748a4.757 4.757 0 0 0 0-1.497c-.079-.411-.144-.074-.144.749m-222.79 9.642c0 .64.069.902.152.582a2.72 2.72 0 0 0 0-1.164c-.083-.32-.152-.058-.152.582m222.811 3.325c0 1.372.059 1.933.131 1.247.071-.686.071-1.808 0-2.494-.072-.685-.131-.124-.131 1.247m-157.219 6.163c-.831.401-.859.447-.166.277.942-.23 2.001-.77 1.496-.762-.183.003-.781.221-1.33.485m94.93-.399c0 .086.482.324 1.073.53.59.206.926.237.748.07-.379-.354-1.821-.83-1.821-.6m-87.282 1.118c1.071 1.093 3.226 2.796 2.494 1.971a12.212 12.212 0 0 0-1.829-1.624c-.549-.378-.848-.534-.665-.347m89.609-.14c0 .064.486.472 1.081.907.668.489.901.57.609.21-.443-.545-1.69-1.369-1.69-1.117m-101.208 2.237c-.661.732-1.203 1.435-1.203 1.562 0 .128.113.09.251-.084a51.3 51.3 0 0 1 1.395-1.562c.63-.686 1.058-1.247.952-1.247-.106 0-.734.599-1.395 1.331m104.201.497c.429.458.836.832.904.832.277 0-1.094-1.643-1.378-1.652-.169-.006.044.363.474.82m-103.028 1.793c-.291.184.026.273.892.25.742-.019 1.167-.147.95-.286-.522-.331-1.286-.317-1.842.036m3.96 1.994c.213.436.3 1.334.194 1.995-.134.83-.095 1.047.125.702.481-.755.39-2.122-.189-2.846-.491-.612-.498-.605-.13.149m91.165 1.367c0 .64.068.902.152.582.083-.32.083-.844 0-1.164-.084-.32-.152-.058-.152.582m-99.971 1.188c-.122.487-.158.95-.079 1.028.078.079.242-.256.364-.743.123-.488.159-.95.08-1.029-.078-.078-.242.256-.365.744m111.245.142c0 .275.129.798.286 1.164.18.419.286.481.286.166 0-.274-.129-.798-.286-1.163-.18-.42-.286-.481-.286-.167m-21.779 1.733c-.112.418-.186 1.36-.164 2.091.032 1.097.084.981.295-.665.269-2.097.213-2.709-.131-1.426m-85.001.267c.275.175.936.32 1.469.323 1.286.006 1.006-.186-.637-.437-.906-.139-1.171-.103-.832.114m17.457 4.102c0 2.515.097 4.228.216 3.807.275-.973.271-6.105-.006-7.398-.116-.539-.21 1.077-.21 3.591m-22.66.216c0 1.554.057 2.19.127 1.413.07-.777.07-2.049 0-2.826-.07-.778-.127-.142-.127 1.413m-28.302 1.662c0 .64.068.902.152.582a2.72 2.72 0 0 0 0-1.164c-.084-.32-.152-.058-.152.582m118.389.832c.002.914.067 1.249.143.743.076-.505.074-1.253-.004-1.662-.079-.409-.142.004-.139.919m47.94 1.984c-.13 1.211-.164 2.274-.076 2.362.088.088.262-.836.386-2.052.125-1.217.159-2.28.076-2.362-.082-.083-.256.84-.386 2.052m-165.99-.322c.004.732.072.992.151.578.08-.414.077-1.012-.006-1.33-.084-.318-.149.021-.145.752m140.09 1.354c-.123.487-.159.95-.08 1.028.078.079.242-.256.365-.743.122-.487.158-.95.079-1.029-.078-.078-.242.257-.364.744m-111.532.142c0 .275.129.798.286 1.164.18.419.286.481.286.166 0-.274-.129-.798-.286-1.163-.18-.42-.286-.481-.286-.167m-70.62 1.911c2.057.058 5.424.058 7.481 0 2.057-.058.374-.106-3.741-.106-4.114 0-5.798.048-3.74.106m244.906 0c2.159.058 5.601.058 7.648 0 2.047-.058.28-.106-3.926-.106-4.206.001-5.881.048-3.722.106m-258.705.323a7.365 7.365 0 0 0 1.829 0c.503-.077.091-.139-.915-.139-1.005 0-1.417.062-.914.139m278.309 0c.505.076 1.253.074 1.662-.005.409-.078-.004-.141-.919-.139-.914.003-1.249.068-.743.144m-173.6 1.272c-.557 1.223-.451 1.483.152.372.281-.519.449-1.006.373-1.082-.076-.076-.312.243-.525.71m-96.23.06c.594.074 1.567.074 2.161 0 .594-.074.108-.134-1.081-.134-1.188 0-1.675.06-1.08.134m15.301 0c.597.074 1.495.073 1.995-.003.499-.076.011-.136-1.087-.135-1.097.002-1.506.064-.908.138m152.351 1.067c.367.719.811 1.396.986 1.504.175.108-.06-.48-.523-1.307-1.032-1.848-1.38-1.996-.463-.197m77.402-1.067c.594.074 1.567.074 2.161 0 .594-.074.108-.134-1.081-.134-1.188 0-1.675.06-1.08.134m15.288-.001c.59.074 1.637.075 2.327.003s.207-.132-1.073-.134c-1.28-.001-1.845.058-1.254.131m-212.176.924c.274 1.223.464 1.488.457.637-.003-.35-.157-.861-.342-1.136-.247-.364-.278-.229-.115.499m228.974-.269c.32.083.844.083 1.164 0 .32-.084.058-.152-.582-.152s-.902.068-.582.152m-64.713 1.612a3.19 3.19 0 0 0-.179 1.095c.016.305.16.113.321-.426.314-1.05.203-1.569-.142-.669m-29.191 1.851c-1.037 1.075-1.626 1.815-1.309 1.646.599-.32 3.36-3.199 3.36-3.502 0-.265-.036-.233-2.051 1.856m-13.572-.239c.977 1.134 3.265 2.864 3.786 2.863.201-.001-.158-.315-.798-.698-.641-.383-1.761-1.243-2.49-1.91-.94-.862-1.085-.936-.498-.255m-87.121 2.391c0 .224 1.728.852 1.892.687.076-.075-.319-.296-.877-.491-.558-.194-1.015-.283-1.015-.196m3.409 1.044a7.357 7.357 0 0 0 1.828 0c.503-.077.092-.139-.914-.139s-1.417.062-.914.139m90.112 0c.506.076 1.254.074 1.663-.005.409-.078-.005-.141-.919-.138-.915.002-1.249.067-.744.143m-164.593.323c.32.084.844.084 1.164 0 .32-.084.058-.152-.582-.152s-.902.068-.582.152m238.737 0c.32.084.843.084 1.163 0 .32-.084.059-.152-.582-.152-.64 0-.901.068-.581.152m-121.031.779c-1.122.451-.9.652.33.299 5.558-1.594 7.502 6.441 1.969 8.144-.853.263-1.292.488-.976.501 1.209.049 3.249-1.062 3.907-2.128 2.291-3.706-1.306-8.393-5.23-6.816m-106.567.224a4.751 4.751 0 0 0 1.496 0c.412-.079.075-.144-.748-.144s-1.16.065-.748.144m216.297.004c.506.076 1.254.074 1.663-.005.409-.078-.005-.141-.919-.138-.915.002-1.249.067-.744.143m-111.784 1.303c-.379.481-.685 1.042-.679 1.246.005.204.176.072.379-.294s.595-.927.873-1.247c.277-.32.416-.582.31-.582-.107 0-.504.395-.883.877m-.689 4.369c0 .863 2.727 3.11 3.2 2.638.08-.081-.315-.337-.878-.571-.563-.233-1.245-.851-1.515-1.374-.481-.93-.807-1.21-.807-.693m-68.662 6.06c.714.731 1.374 1.33 1.465 1.33.091 0-.418-.599-1.132-1.33-.715-.732-1.374-1.331-1.465-1.331-.092 0 .418.599 1.132 1.331m62.983 1.911c-.375.495-.371.52.026.167.635-.567 1.327-.522 2.052.134.343.311.608.388.608.178 0-.983-2.031-1.345-2.686-.479m17.574 0c-.28.32-.747 1.051-1.037 1.623-.901 1.782-2.816 3.131-5.372 3.789-.916.235-.929.258-.166.283 2.043.065 4.654-1.859 6.179-4.553.757-1.339 1.782-1.716 2.456-.905 1.337 1.611-3.007 6.743-6.474 7.648-.549.143-.822.326-.606.405 1.945.721 7.755-4.91 7.755-7.517 0-1.239-1.864-1.766-2.735-.773m63.406 1.829l-1.985 2.078 2.079-1.984c1.143-1.092 2.078-2.027 2.078-2.078 0-.246-.328.054-2.172 1.984m-81.283-.319c-.024 1.975 5.264 6.945 7.307 6.867.277-.011-.252-.363-1.176-.783-2.224-1.012-3.975-2.593-5.16-4.658-.532-.929-.969-1.571-.971-1.426m100.89 1.982l-.976 1.08 1.08-.976c.595-.537 1.081-1.024 1.081-1.081 0-.257-.275-.031-1.185.977m-96.426-.142c.911 1.055 2.487 1.949 3.845 2.18 1.031.176.993.136-.332-.345-.823-.299-2.095-1.001-2.827-1.561-.929-.712-1.136-.794-.686-.274m4.766 5.287c.597.074 1.495.073 1.995-.003.499-.076.01-.137-1.087-.135-1.097.002-1.506.064-.908.138m-55.784.59c.458.262.981.476 1.164.476.183 0-.041-.214-.499-.476-.457-.261-.98-.475-1.163-.475-.183 0 .041.214.498.475m105.071 4.172c-.364.246-.23.277.499.114 1.222-.273 1.488-.464.637-.457-.35.003-.862.157-1.136.343m-3.159.65c-.905.23-.92.255-.166.269.457.009 1.131-.112 1.496-.269.82-.353.055-.353-1.33 0m-78.383 1.232c.413.08 1.012.077 1.33-.006.318-.084-.021-.149-.752-.145-.732.004-.992.072-.578.151m71.82 0c.414.08 1.012.077 1.33-.006.318-.084-.02-.149-.752-.145-.731.004-.991.072-.578.151m-65.673.659c.32.084.844.084 1.164 0 .32-.083.058-.152-.582-.152s-.902.069-.582.152m59.851 0c.32.084.843.084 1.163 0 .32-.083.059-.152-.582-.152-.64 0-.901.069-.581.152m-57.025.344c.595.074 1.567.074 2.162 0 .594-.074.108-.134-1.081-.134s-1.675.06-1.081.134m52.868 0c.595.074 1.567.074 2.162 0 .594-.074.108-.134-1.081-.134s-1.675.06-1.081.134m-48.379.321c.32.084.844.084 1.164 0 .32-.083.058-.152-.582-.152s-.902.069-.582.152m44.726.006c.413.08 1.012.077 1.33-.006.318-.084-.021-.149-.752-.145-.732.004-.992.072-.578.151m-29.74.347c4.172.053 10.906.052 14.962 0 4.057-.053.642-.096-7.587-.096s-11.548.043-7.375.096m-78.411 25.021c.715.731 1.374 1.33 1.465 1.33.092 0-.418-.599-1.132-1.33-.714-.732-1.374-1.33-1.465-1.33-.091 0 .418.598 1.132 1.33m20.372 8.886c.598.074 1.496.072 1.995-.004.5-.075.011-.136-1.086-.134-1.098.002-1.506.064-.909.138m1.989 17.954c.595.074 1.567.074 2.162 0 .594-.073.108-.134-1.081-.134s-1.675.061-1.081.134" fill="#c79e89"/>
        <path d="M91.505 185.27c-.587.587-.491 1.083.349 1.794l.748.633-.622-.735c-1.427-1.687.798-2.487 2.347-.844.713.757.795.787.475.174-.679-1.301-2.465-1.854-3.297-1.022m5.831 4.884c-.09.346-.035.832.123 1.081.195.308.288.107.292-.628.005-1.21-.167-1.398-.415-.453m3.079.287c.435.594.843 1.08.906 1.08.253 0-.572-1.247-1.117-1.69-.359-.291-.279-.059.211.61m.48 2.11c-.124.2-.649.302-1.166.226-.518-.076-.865-.015-.772.134.28.455 1.683.305 2.124-.226.227-.274.329-.499.226-.499-.103 0-.288.164-.412.365m2.59 5.288c0 .64.069.902.152.582a2.72 2.72 0 0 0 0-1.164c-.083-.32-.152-.058-.152.582m3.99 1.33c0 .64.069.902.152.582a2.72 2.72 0 0 0 0-1.164c-.083-.32-.152-.058-.152.582m6.956 8.495c-.028.558-.236 1.231-.464 1.496-.227.266-.141.242.193-.054.408-.362.559-.851.463-1.497l-.143-.959-.049 1.014m7.514 5.385c1.21 1.138 1.349 1.897.518 2.816-.53.585-.53.609.002.405 1.388-.532.854-2.938-.852-3.841-.523-.276-.422-.089.332.62m31.551.82c-.112.418-.206 1.236-.208 1.817-.003.717-.192 1.112-.586 1.228-.453.133-.434.156.083.103.544-.056.705-.399.888-1.891.237-1.943.158-2.507-.177-1.257m-24.932 2.2c-.716.791-.702 1.857.031 2.411.495.375.52.371.166-.026-.913-1.024-.375-2.394 1.081-2.752.64-.157.639-.165-.032-.202-.383-.021-.944.235-1.246.569m12.532-.353c-.211.134.335.244 1.215.244.879 0 1.426-.11 1.215-.244-.211-.135-.758-.244-1.215-.244-.457 0-1.004.109-1.215.244m-7.761 1.141c.514.621.396 1.175-.417 1.957-.746.717-.746.718-.023.346.989-.508 1.316-1.653.64-2.241-.293-.254-.383-.282-.2-.062m68.314 50.142c0 8.321.044 11.725.096 7.565a719.79 719.79 0 0 0 0-15.129c-.052-4.161-.096-.757-.096 7.564m-4.323-.997c0 7.589.043 10.694.097 6.899.053-3.795.053-10.004 0-13.799-.054-3.794-.097-.69-.097 6.9m47.199-4.822c0 3.109.05 4.426.111 2.926.062-1.5.062-4.043.001-5.652-.061-1.61-.112-.383-.112 2.726m-90.105.998c0 3.475.049 4.851.109 3.058.06-1.792.06-4.635-.001-6.317-.06-1.682-.109-.216-.108 3.259m72.22 7.98c.104.914.327 1.887.495 2.161.326.532.257.055-.362-2.494-.313-1.29-.317-1.28-.133.333m-54.776 1.424c-.109.66-.061.97.124.786.167-.168.249-.659.181-1.091-.105-.666-.152-.619-.305.305m55.749 2.483c.124.411.363.894.53 1.073.167.179.136-.158-.07-.748-.421-1.208-.81-1.483-.46-.325m19.748-.191c.193.397 1.061 1.459 1.931 2.358 1.116 1.155 1.238 1.235.414.274a66.183 66.183 0 0 1-1.93-2.358c-.446-.582-.618-.697-.415-.274m-18.922 1.942c-.012.389 1.587 2.821 1.853 2.821.098 0-.109-.412-.46-.915a24.097 24.097 0 0 1-1.01-1.579c-.205-.366-.377-.513-.383-.327m-59.042 1.574c-.512.777-.719 1.237-.459 1.023.499-.413 1.772-2.436 1.532-2.436-.077 0-.56.636-1.073 1.413m-20.461-.193l-.806.888.904-.639c.497-.351.908-.75.914-.887.017-.41-.165-.295-1.012.638m-6.326 3.479c-1.086.63-2.296 2.125-2.293 2.833.001.155.301-.211.668-.812.367-.602 1.189-1.402 1.828-1.779.638-.376 1.16-.744 1.16-.818 0-.203-.075-.171-1.363.576m114.413 1.203c.435.594.843 1.08.907 1.08.252 0-.572-1.247-1.118-1.69-.359-.291-.278-.059.211.61m-60.136.415c-.03.457-.132 1.206-.226 1.663l-.171.831.357-.818c.197-.451.298-1.199.226-1.663l-.132-.844-.054.831m4.965 1.025c.013.442.159 1.103.325 1.469.21.464.24.262.099-.665-.236-1.544-.458-1.965-.424-.804m19.618.167c.013.533.156 1.269.318 1.635.196.444.228.167.096-.832-.233-1.762-.447-2.178-.414-.803m15.604.637c.457.261.981.475 1.164.475.183 0-.042-.214-.499-.475s-.981-.475-1.164-.475c-.183 0 .042.214.499.475m-77.891.898c-.504.177-.822.475-.706.662.128.207-.034.264-.414.144-.343-.107-1.446.024-2.452.293-2.872.766-10.18 1.319-12.072.912-2.049-.439-1.764-.161.676.663 2.337.789 4.667 2.454 6.328 4.521.684.852 1.319 1.624 1.41 1.716.092.091.418.69.724 1.33 2.476 5.169 2.643 6.283 2.575 17.124l-.058 9.31 1.954.275c1.075.152 2.185.396 2.466.541.282.146 2.189.375 4.239.509 2.051.134 3.728.377 3.728.54 0 .163.973.296 2.161.296h2.162l.076-4.073c.043-2.24.08-7.5.084-11.687l.006-7.614-1.066-1.066c-.586-.586-1.124-.901-1.195-.699-.071.202-.062-.063.02-.588.092-.586-.024-1.067-.301-1.242-.291-.185-.313-.288-.061-.291.215-.003.562-.526.772-1.164.211-.637 1.008-1.702 1.772-2.368.764-.665 1.09-1.054.724-.864-.366.191-.983.647-1.372 1.013-.681.643-1.454.448-1.454-.366 0-1.007-5.763-5.899-6.95-5.899-.407 0-.645-.149-.532-.332.113-.183-.028-.333-.313-.333s-.518-.149-.518-.332c0-.183-.171-.333-.379-.333s-.545-.207-.748-.46c-.277-.346-.598-.38-1.286-.138m79.642.236c.117.448.01.571-.403.463-.31-.081-.758.088-.996.375-.239.287-.577.522-.752.522-1.095 0-6.583 4.617-6.583 5.538 0 .246-.224.447-.498.447a.505.505 0 0 0-.499.509c0 .28-.22.594-.489.697-.416.159-.39.384.173 1.486.66 1.294.66 1.302.004 2.587-.361.709-.551 1.406-.422 1.549.129.144.084.175-.101.071-.186-.105-.709.015-1.164.267-.488.27-.623.463-.329.469.436.011.488 1.529.408 12l-.091 11.987 2.086-.198c3.162-.3 9.545-1.145 11.23-1.485a89.966 89.966 0 0 1 2.713-.5c1.091-.177 1.205-.291 1.107-1.103-.579-4.802-.027-20.704.781-22.517 2.038-4.574 3.985-7.071 7.096-9.104 1.153-.754 2.298-1.37 2.545-1.37.583 0 2.975-1.698 3.205-2.275.098-.246-.272-.068-.822.395-1.362 1.146-3.215 1.355-7.961.898-2.205-.213-4.182-.28-4.393-.15-.223.138-.294.092-.169-.11.127-.207-.291-.442-1.029-.579-.684-.127-2.046-.512-3.025-.855-1.721-.603-1.776-.603-1.622-.014m-63.054 4.073c-.498.761-.665 1.184-.37.939.503-.417 1.644-2.322 1.391-2.322-.063 0-.523.622-1.021 1.383m28.979 1.114c.188.368.693.966 1.121 1.328.752.636.75.624-.047-.336-1.324-1.595-1.436-1.698-1.074-.992m20.021.617c.64.695 1.463 1.421 1.829 1.613.366.193.59.281.499.196-2.127-1.978-3.385-2.955-2.328-1.809m-31.732.46c-.718.919-.776 1.073-.218.586.666-.583 1.546-1.833 1.289-1.833-.052 0-.534.561-1.071 1.247m15.19 2.631c.523.596.877 2.18.375 1.678-.488-.488-4.443 6.879-4.451 8.292-.002.339-.247 1.364-.544 2.279-.423 1.302-.574 3.597-.7 10.601l-.161 8.939 1.226-.23c.937-.176 12.335-.77 16.226-.845.537-.011.581-.617.581-7.972 0-4.378.132-8.042.294-8.142.161-.099.397-1.154.524-2.343.128-1.19.353-2.237.5-2.328.148-.091.369-.841.493-1.666s.403-1.508.62-1.516c.218-.009-.974-.378-2.647-.821-1.673-.443-3.91-1.189-4.97-1.657-1.059-.469-2.129-.775-2.377-.68-.248.095-.364.033-.258-.139.256-.415-1.066-1.105-1.547-.808-.207.128-.302.098-.21-.068.091-.165-.671-.961-1.695-1.769-1.023-.807-1.599-1.17-1.279-.805m-19.202 1.321c-2.628 2.245-10.232 5.055-13.986 5.169-1.87.057-1.891.066-.406.184 1.498.118 1.577.176 1.788 1.296.121.645.388 1.239.593 1.319.206.08.415.983.466 2.007.05 1.023.259 2.173.464 2.556.25.467.355 3.337.319 8.721l-.053 8.025 5.241.217c2.883.12 7 .218 9.149.219l3.907.001-.001-5.071c-.003-11.966-1.421-18.65-4.897-23.081-.598-.763-1.087-1.623-1.087-1.912 0-.723-.331-.646-1.497.35m-19.783 7.27c.339.409.316.499-.126.499-.297 0-.539-.225-.539-.499s.056-.499.125-.499.312.225.54.499" fill="#70abd0"/>
        <path d="M116.209 7.315c1.407.358 2.614.358 1.497 0a6.442 6.442 0 0 0-1.663-.26c-.746.006-.73.032.166.26m158.105 0c-.658.211-.693.266-.166.266.366 0 1.039-.12 1.496-.266.658-.211.693-.266.166-.266-.365 0-1.039.12-1.496.266m-153.449.998c.365.157.889.285 1.163.285.315 0 .253-.105-.166-.285-.366-.158-.889-.286-1.164-.286-.314 0-.253.105.167.286m149.293 0c-.419.18-.481.285-.166.285.274 0 .798-.128 1.163-.285.42-.181.481-.286.167-.286-.275 0-.798.128-1.164.286m-164.699.98c-.195.558-.283 1.015-.197 1.015.225 0 .852-1.728.688-1.892-.076-.076-.297.319-.491.877m180.674-.232c.124.411.363.894.53 1.073.167.178.136-.158-.07-.748-.421-1.208-.81-1.483-.46-.325M104.439 12.17c-.191.692-.288 1.319-.215 1.392.073.073.29-.434.481-1.126.191-.693.288-1.32.215-1.393-.074-.073-.29.434-.481 1.127m182.692-.365c.13.548.364 1.136.52 1.306.156.171.142-.186-.032-.793-.406-1.414-.799-1.828-.488-.513m-154.13.996c.823.441 1.646.802 1.829.802.182 0-.341-.361-1.164-.802-.823-.44-1.646-.801-1.829-.801-.183 0 .341.361 1.164.801m125.353 0c-.823.441-1.347.802-1.164.802.183 0 1.006-.361 1.829-.802.823-.44 1.347-.801 1.164-.801-.183 0-1.006.361-1.829.801m-154.739 2.008a3.19 3.19 0 0 0-.178 1.095c.015.305.16.113.321-.426.314-1.049.203-1.569-.143-.669m184.538.32c.119.548.348 1.222.508 1.496.187.319.215.14.077-.499-.119-.548-.347-1.222-.508-1.496-.187-.319-.215-.139-.077.499m-92.226 4.404c1.6.061 4.218.061 5.819 0 1.6-.061.291-.111-2.91-.111-3.2 0-4.509.05-2.909.111m-8.811.319c.411.08 1.084.08 1.496 0 .411-.079.075-.144-.748-.144s-1.16.065-.748.144m22.281.001c.414.079 1.012.076 1.33-.007.318-.083-.02-.148-.752-.145-.731.004-.992.072-.578.152m-28.682.442c-.779.146-.091.177 1.662.074 1.646-.096 3.055-.23 3.131-.297.238-.209-3.394-.04-4.793.223m31.449-.223c.076.067 1.485.204 3.131.303 2.109.127 2.551.099 1.496-.097-1.512-.282-4.883-.431-4.627-.206m-39.429 1.225c-.656.178-.315.207.997.085 1.098-.102 2.058-.241 2.134-.31.247-.222-2.106-.053-3.131.225m50.208.002c1.684.349 3.045.333 1.662-.019a9.866 9.866 0 0 0-1.995-.255c-.839-.001-.786.043.333.274m-56.027.979c-1.117.358.09.358 1.496 0 .896-.228.913-.255.167-.26a6.351 6.351 0 0 0-1.663.26m62.012 0c1.406.358 2.613.358 1.496 0a6.351 6.351 0 0 0-1.663-.26c-.746.005-.729.032.167.26m11.887.37c-1.134.726-1.5 1.214-.499.663.763-.419 1.958-1.343 1.746-1.35-.092-.002-.653.307-1.247.687m-78.72.643c-.464.21-.262.24.665.098.731-.111 1.392-.257 1.468-.324.286-.252-1.495-.064-2.133.226m71.986-.016c1.137.364 2.012.364 1.164 0-.366-.157-.964-.281-1.33-.276-.534.008-.502.062.166.276m-80.465 1.283c.9.755 1.871.892 2.66.375.358-.234.204-.27-.542-.127-.693.132-1.361.008-1.995-.373l-.954-.572.831.697m4.156-.285c-.847.364.027.364 1.164 0 .668-.214.701-.268.166-.276-.366-.006-.964.118-1.33.276m-56.264 2.161c.003.914.067 1.249.144.743.076-.505.074-1.253-.005-1.662-.079-.409-.141.005-.139.919m188.857-.166c0 .823.065 1.159.144.748a4.751 4.751 0 0 0 0-1.496c-.079-.412-.144-.075-.144.748m.332 2.992c0 .823.065 1.16.144.748.08-.411.08-1.084 0-1.496-.079-.411-.144-.075-.144.748m-189.521.499c.002.914.067 1.249.143.743.077-.505.075-1.253-.004-1.662-.079-.409-.142.005-.139.919m.004 7.481c0 1.006.063 1.418.139.915a7.365 7.365 0 0 0 0-1.829c-.076-.503-.139-.092-.139.914m189.511.499c.003.731.071.992.151.578.08-.414.076-1.012-.007-1.33-.083-.318-.148.02-.144.752m-189.239 2.854c.022.808.158 1.917.302 2.466.16.605.192.082.082-1.33-.206-2.643-.443-3.345-.384-1.136m188.917.139c.003.914.067 1.248.144.743.076-.505.074-1.253-.005-1.662-.079-.409-.141.004-.139.919m-188.072 5.32c.115.731.334 1.629.488 1.995.178.422.204.179.072-.665-.115-.732-.334-1.63-.488-1.995-.178-.423-.204-.18-.072.665m187.193-.25c-.09.32-.25 1.106-.356 1.746-.241 1.454.276.35.583-1.247.219-1.135.054-1.497-.227-.499m-186.208 4.24c.119.548.347 1.222.508 1.496.187.319.215.139.077-.499-.119-.549-.348-1.222-.508-1.496-.187-.319-.215-.14-.077.499m185.199-.307c-.171.447 3.847 5.46 4.376 5.46.187 0-3.078-3.768-3.746-4.321a1.012 1.012 0 0 1-.318-1.046c.238-.75-.029-.83-.312-.093m-185.236 5.124c-.524.547-.888 1.048-.81 1.112.078.065.568-.382 1.089-.994 1.176-1.381 1.002-1.454-.279-.118m-2.876 3.578c-.956 1.155-1.362 1.746-1.197 1.746.092 0 .567-.524 1.055-1.164.906-1.188 1.016-1.636.142-.582m196.223 1.912c.566.823 1.104 1.496 1.196 1.496.091 0-.297-.673-.864-1.496-.566-.823-1.104-1.496-1.195-1.496-.092 0 .297.673.863 1.496M97.55 62.261c-1.145 1.942-1.219 2.108-.636 1.413.675-.804 1.257-1.829 1.039-1.829-.087 0-.268.187-.403.416m201.061 1.081c.411.731.89 1.479 1.065 1.662.497.522-.641-1.584-1.259-2.327-.304-.366-.216-.067.194.665m4.48 8.562c.124.411.363.894.53 1.073.167.178.136-.158-.07-.749-.421-1.207-.81-1.482-.46-.324M88.612 81.796c-.126.574-.16 1.114-.076 1.199.085.084.25-.324.367-.909.277-1.386.008-1.654-.291-.29m218.334 1.662c0 .274.129.798.286 1.164.18.419.286.48.286.166 0-.274-.129-.798-.286-1.164-.18-.419-.286-.48-.286-.166m-219.332 2.66c-.127.756-.162 1.445-.077 1.53.085.085.255-.469.377-1.231.121-.762.156-1.45.077-1.53-.08-.079-.249.475-.377 1.231m220.355 2.66c.004.457.121 1.28.26 1.829l.254.997.006-.997c.004-.549-.113-1.372-.26-1.829l-.266-.831.006.831M86.86 91.438c0 .64.069.902.152.582a2.72 2.72 0 0 0 0-1.164c-.083-.32-.152-.058-.152.582m146.329.005c-9.965.268-7.808.494 4.722.494 6.282 0 11.162-.097 10.845-.214-.895-.332-8.519-.469-15.567-.28m-83.963.268c-.312.124 4.312.226 10.275.226 5.964 0 10.258-.104 9.544-.23-1.674-.297-19.074-.294-19.819.004m-5.007.711c-1.801.349-1.995.751-.233.483 1.503-.229 3.04-.813 1.982-.754-.274.016-1.061.138-1.749.271m31.01.005c.64.145 3.258.34 5.818.434 2.844.105 3.944.07 2.827-.088-2.594-.368-10.063-.667-8.645-.346m40.438.046c-2.356.15-4.369.358-4.473.462-.263.262 8.821-.185 10.252-.505l1.164-.26-1.33.015c-.731.008-3.258.137-5.613.288m35.705-.081c.274.158 1.172.382 1.995.497.899.127 1.297.096.997-.077-.274-.158-1.172-.382-1.995-.498-.899-.126-1.297-.095-.997.078M86.554 94.597c.001 1.097.064 1.506.138.908.074-.597.072-1.495-.004-1.995-.076-.499-.136-.01-.134 1.087m53.928-1.259c-1.116.268-1.251.658-.172.499.556-.081 1.093-.28 1.193-.442.192-.31.059-.317-1.021-.057m54.577.149c1.948.169 4.896.169 6.983 0 3.382-.275 3.169-.293-3.372-.294-6.361 0-6.682.026-3.611.294m60.801-.12c.183.172.782.417 1.33.545.629.147.875.117.665-.08-.183-.172-.781-.418-1.33-.546-.628-.146-.874-.117-.665.081m52.779.731c0 .64.068.902.152.582a2.72 2.72 0 0 0 0-1.164c-.084-.32-.152-.058-.152.582m-171.281.361c-.438.175-.72.394-.628.487.194.194 1.923-.411 1.923-.673 0-.24-.358-.189-1.295.186m-2.215 1.119c-.623.465-.619.475.107.292.415-.104.835-.321.934-.482.282-.455-.327-.344-1.041.19m-4.702 3.131c-1.061.891-2.301 2.05-2.756 2.577-.606.703-.473.637.499-.245 1.241-1.127 1.702-1.519 3.819-3.249.458-.374.727-.684.599-.69-.127-.006-1.1.717-2.161 1.607m178.586 3.702c0 2.651.051 3.736.114 2.41a61.51 61.51 0 0 0 0-4.821c-.063-1.326-.114-.241-.114 2.411m-222.785-.832c.001 2.012.056 2.792.122 1.734.066-1.058.066-2.704-.001-3.658-.067-.953-.121-.087-.121 1.924m181.13-1.862c.801.714 1.505 1.25 1.566 1.193.161-.154-2.387-2.47-2.73-2.48-.16-.005.363.574 1.164 1.287m2.961 2.568c.011.342 2.327 2.891 2.481 2.729.057-.06-.48-.765-1.193-1.565-.713-.801-1.293-1.325-1.288-1.164m-146.136 2.673c-1.195 1.401-2.086 2.634-1.98 2.74.107.106.34-.068.519-.387.178-.32 1.149-1.553 2.157-2.741 1.007-1.188 1.752-2.159 1.655-2.159-.098 0-1.156 1.146-2.351 2.547m149.596 1.526c.513.686.995 1.247 1.071 1.247.293 0-.524-1.203-1.245-1.833-.621-.541-.589-.435.174.586m-187.31 3.269c.019 1.54.148 3.622.289 4.628.155 1.111.189.067.087-2.66-.188-5.025-.426-6.27-.376-1.968m34.625-.775c-.975 1.407-1.212 2.006-.429 1.08.811-.959 1.444-1.995 1.217-1.995-.085 0-.44.412-.788.915m156.697 3.74c.464.915.918 1.663 1.009 1.663.092 0-.213-.748-.676-1.663-.463-.914-.917-1.662-1.009-1.662-.091 0 .213.748.676 1.662m30.857.333c0 1.006.062 1.417.138.914a7.365 7.365 0 0 0 0-1.829c-.076-.503-.138-.091-.138.915m-191.306 2.872c-.184.483-.272.939-.197 1.015.076.075.296-.32.491-.878.432-1.24.171-1.362-.294-.137m-.98 2.614c-.22.665-.32 1.287-.224 1.383.096.097.332-.391.523-1.084.452-1.635.219-1.868-.299-.299m163.76-.499c.394 1.343.869 1.976.624.831-.118-.548-.361-1.147-.541-1.33-.215-.218-.243-.047-.083.499m27.937 1.839c-.131 1.393-.163 2.608-.071 2.699.091.092.273-.973.403-2.367.131-1.393.163-2.608.072-2.699-.092-.092-.273.973-.404 2.367m-220.586.849c.022.625.162 1.585.311 2.134.178.655.207.314.085-.998-.205-2.199-.458-2.925-.396-1.136m28.118.434c-.104.27-.265 1.436-.358 2.591l-.17 2.101.446-2.494c.434-2.431.463-3.191.082-2.198m165.587.731c.323 2.06.79 2.868.561.969-.111-.915-.328-1.8-.483-1.967-.155-.167-.19.281-.078.998m-192.68 4.959c0 .365.12 1.039.266 1.496.211.658.266.693.266.166 0-.366-.12-1.039-.266-1.496-.211-.658-.266-.693-.266-.166m193.559 2.327c.001 1.28.061 1.763.133 1.073.072-.69.071-1.737-.002-2.327-.074-.591-.133-.026-.131 1.254m25.01-.65c-.127.848-.163 1.61-.08 1.693.083.084.255-.542.382-1.391.127-.848.163-1.61.08-1.693-.083-.083-.255.543-.382 1.391m-192.268.484c0 1.006.062 1.417.138.914a7.27 7.27 0 0 0 0-1.829c-.076-.502-.138-.091-.138.915m118.687 2.494c.004.731.072.991.152.578.079-.414.076-1.013-.007-1.33-.083-.318-.148.02-.145.752m-144.01-.167c0 .275.128.798.286 1.164.18.419.285.481.285.166 0-.274-.128-.798-.285-1.163-.181-.42-.286-.481-.286-.167m216.578 2.66c-.126.575-.155 1.12-.063 1.212.091.091.269-.304.396-.879.126-.575.154-1.12.063-1.211-.091-.092-.27.304-.396.878m-190.945 1.33c0 .64.068.902.152.582a2.72 2.72 0 0 0 0-1.164c-.084-.32-.152-.058-.152.582m-24.636-.332c0 .274.129.798.286 1.164.18.419.286.48.286.166 0-.274-.129-.798-.286-1.164-.18-.419-.286-.481-.286-.166m24.968 2.992c0 .64.069.902.152.582a2.72 2.72 0 0 0 0-1.164c-.083-.32-.152-.058-.152.582m189.659.083c-.273 1.019-.259 1.58.04 1.578.137 0 .276-.524.309-1.163.068-1.337-.061-1.49-.349-.415m-213.571.496l.164.745-14.848.09-14.847.09 15.045.079c15.66.083 15.634.085 14.68-1.25-.287-.401-.325-.353-.194.246m189.831 1.084c0 .64.068.902.152.582a2.72 2.72 0 0 0 0-1.164c-.084-.32-.152-.058-.152.582m33.256-.084a719.79 719.79 0 0 0 15.129 0c4.16-.052.756-.096-7.564-.096-8.321 0-11.725.044-7.565.096m-258.514.325c.597.074 1.495.072 1.995-.004.499-.075.01-.136-1.087-.134-1.097.002-1.506.064-.908.138m285.286 0c.598.074 1.496.072 1.995-.004.5-.075.011-.136-1.086-.134-1.097.002-1.506.064-.909.138m-294.353.424l-1.995.221 1.663.014c.914.008 2.709-.093 3.99-.224l2.327-.239-1.995.004a44.454 44.454 0 0 0-3.99.224m301.413.012c1.189.133 2.91.237 3.824.231 1.57-.011 1.542-.026-.499-.255-1.188-.134-2.909-.238-3.824-.231-1.57.011-1.542.025.499.255m-276.226.236c2.515.057 6.629.057 9.144 0 2.514-.056.457-.102-4.572-.102s-7.086.046-4.572.102m245.387 0c2.514.057 6.629.057 9.143 0 2.515-.056.458-.102-4.571-.102-5.03 0-7.087.046-4.572.102m-275.645.314c.32.083.844.083 1.164 0 .32-.084.058-.152-.582-.152s-.902.068-.582.152m20.958.015c.874.069 2.221.068 2.993-.002.771-.069.056-.126-1.59-.125-1.646.001-2.277.058-1.403.127m26.148.004c2.461.087 3.23.232 3.592.679.41.506.421.486.099-.179-.343-.708-.539-.745-3.593-.68l-3.23.069 3.132.111m218.906-.004c.874.069 2.221.068 2.993-.002.771-.069.056-.126-1.59-.125-1.646.001-2.277.058-1.403.127m25.27 0c.874.069 2.221.068 2.993-.002.771-.069.056-.126-1.59-.125-1.646.001-2.277.058-1.403.127m22.6-.015c.32.083.844.083 1.164 0 .32-.084.058-.152-.582-.152s-.902.068-.582.152m-319.285.435c-1.36.212-1.39.235-.332.258.64.014 1.837-.094 2.66-.241 1.993-.354-.06-.369-2.328-.017m17.54-.092c.594.074 1.567.074 2.161 0 .594-.073.108-.134-1.081-.134-1.188 0-1.675.061-1.08.134m288.612 0c.594.074 1.566.074 2.161 0 .594-.073.108-.134-1.081-.134s-1.675.061-1.08.134m17.373.091c1.537.292 4.209.432 3.962.208-.076-.069-1.335-.208-2.798-.309-2-.137-2.289-.112-1.164.101m-313.55.329c-.64.133.408.167 2.328.077 1.92-.09 3.553-.218 3.63-.284.247-.215-4.759-.04-5.958.207m300.277-.208c.077.066 1.635.198 3.464.293 2.159.112 2.859.076 1.995-.101-1.312-.27-5.728-.425-5.459-.192m-318.564.878c-1.662.35.043.364 1.995.017 1.349-.24 1.382-.266.332-.264-.64.001-1.687.112-2.327.247m12.888-.097c.414.079 1.012.076 1.33-.007.318-.083-.02-.148-.752-.145-.731.004-.992.072-.578.152m315.544 0c.414.079 1.013.076 1.33-.007.318-.083-.02-.148-.752-.145-.731.004-.991.072-.578.152m12.216.116c.732.151 1.704.266 2.161.256.534-.012.355-.118-.498-.294-.732-.151-1.705-.267-2.162-.256-.533.012-.354.117.499.294m-332.835.322c-.605.159-.081.191 1.33.082 1.281-.1 2.39-.236 2.467-.302.254-.222-2.786-.046-3.797.22m322.721-.221c.077.066 1.261.2 2.633.298 1.461.104 2.08.071 1.496-.081-1.008-.261-4.385-.439-4.129-.217m-337.018.877c-.89.227-.908.254-.166.254.457 0 1.28-.114 1.828-.254.89-.226.908-.253.167-.253-.458 0-1.28.114-1.829.253m10.224-.103c.32.084.844.084 1.164 0 .32-.084.058-.152-.582-.152s-.902.068-.582.152m333.832 0c.32.084.844.084 1.164 0 .32-.084.058-.152-.582-.152s-.902.068-.582.152m9.726.103c.549.14 1.372.254 1.829.254.741 0 .723-.027-.166-.254-.549-.139-1.372-.253-1.829-.253-.742 0-.724.027.166.253m-347.465.33c-.413.175.026.212 1.164.096 1.006-.102 1.891-.24 1.967-.306.287-.247-2.493-.061-3.131.21m339.679-.21c.076.066.961.204 1.967.306 1.138.116 1.578.079 1.164-.096-.637-.271-3.417-.457-3.131-.21m-351.815.878c-.658.211-.693.266-.166.266.366 0 1.039-.12 1.496-.266.658-.211.693-.266.166-.266-.365 0-1.039.119-1.496.266m365.752 0c.458.146 1.131.266 1.497.266.526 0 .492-.055-.167-.266-.457-.147-1.13-.266-1.496-.266-.526 0-.492.055.166.266m-360.266.335c-.427.185-.072.219.998.096.914-.106 1.725-.246 1.801-.312.288-.248-2.163-.059-2.799.216m353.312-.216c.076.066.886.206 1.801.312 1.069.123 1.425.089.997-.096-.635-.275-3.087-.464-2.798-.216m-94.583 1.252c-.278 1.386-.009 1.655.291.291.126-.574.16-1.114.075-1.199-.085-.084-.25.324-.366.908m-263.18-.347c-.803.158-1.545.373-1.65.478-.222.222 2.384-.161 3.608-.529 1.173-.354-.061-.321-1.958.051m363.055-.068c1.198.385 3.972.743 3.159.408-.366-.151-1.413-.365-2.328-.475-1.024-.123-1.343-.097-.831.067m-367.415.753c0 .157.374.286.831.286.458 0 .832-.057.832-.128 0-.07-.374-.199-.832-.286-.457-.087-.831-.03-.831.128m372.735-.047l-.831.267.914.033c.503.018.914-.117.914-.3 0-.182-.037-.317-.083-.299-.045.018-.457.153-.914.299m-82.97.699c-.32 1.009.219 1.357 1.877 1.21l1.459-.13-1.616-.058c-1.547-.056-1.606-.093-1.407-.889.253-1.007-.001-1.115-.313-.133m-207.304.608c0 .17-.337.375-.749.454-.641.123-.617.15.167.189.611.03.914-.12.914-.453 0-.275-.075-.499-.166-.499-.092 0-.166.139-.166.309m-11.97 1.021c-2.026.204-2.058.219-.499.242.914.013 2.934-.087 4.489-.224l2.826-.248-2.328.006c-1.28.004-3.3.104-4.488.224m228.761.018c3.929.345 7.112.321 3.99-.03-1.189-.134-3.209-.237-4.489-.23l-2.327.012 2.826.248m-235.158.55c.413.079 1.012.076 1.33-.007.318-.083-.021-.148-.752-.145-.732.004-.992.072-.578.152m244.389 0c.413.079 1.012.076 1.33-.007.318-.083-.021-.148-.752-.145-.732.004-.992.072-.578.152m-250.96.429l-1.496.233 1.33.025c.731.014 2.003-.094 2.826-.241l1.496-.266-1.33.008c-.731.005-2.003.113-2.826.241m23.173-.085c2.734.098 3.08.182 3.273.788.118.373.288.604.378.515.894-.895-.711-1.547-3.644-1.481l-3.064.069 3.057.109m211.002-.002c.874.068 2.22.068 2.992-.002.772-.07.057-.126-1.589-.125-1.646.001-2.278.058-1.403.127m21.852.104c.822.147 2.094.258 2.826.247 1.296-.019 1.287-.027-.333-.279-2.381-.371-4.598-.342-2.493.032m-240.804.229c.966.067 2.463.067 3.325-.002.863-.068.072-.123-1.757-.122-1.828.001-2.534.057-1.568.124m225.259-.001c.869.068 2.29.068 3.159 0 .868-.069.158-.125-1.58-.125-1.737 0-2.448.056-1.579.125m-229.593.323a4.757 4.757 0 0 0 1.497 0c.411-.08.074-.145-.748-.145-.823 0-1.16.065-.749.145m235.412 0a4.751 4.751 0 0 0 1.496 0c.412-.08.075-.145-.748-.145s-1.16.065-.748.145m-255.445.43c-1.934.346.116.36 2.328.015 1.578-.246 1.595-.259.332-.256-.731.002-1.928.11-2.66.241m14.552-.094c.505.076 1.253.074 1.662-.005.409-.078-.004-.141-.919-.138-.914.002-1.249.067-.743.143m246.384 0c.505.076 1.253.074 1.662-.005.409-.078-.004-.141-.919-.138-.914.002-1.249.067-.743.143m12.796-.004a4.757 4.757 0 0 0 1.497 0c.411-.079.075-.144-.748-.144s-1.16.065-.749.144m-263.003.339c.598.074 1.496.072 1.995-.003.5-.076.011-.137-1.086-.135-1.098.002-1.506.064-.909.138m253.699 0c.598.074 1.496.072 1.995-.003.5-.076.011-.137-1.086-.135-1.097.002-1.506.064-.909.138m12.131-.012c.32.084.843.084 1.163 0 .321-.083.059-.152-.581-.152-.64 0-.902.069-.582.152m-268.662.333c.32.083.844.083 1.164 0 .32-.084.058-.152-.582-.152s-.902.068-.582.152m-15.711.435c-1.661.35.043.365 1.995.017 1.35-.24 1.383-.266.333-.264-.64.002-1.688.113-2.328.247m11.891-.097c.414.08 1.012.077 1.33-.007.318-.083-.02-.148-.752-.144-.731.003-.991.072-.578.151m267.664 0c.414.08 1.012.077 1.33-.007.318-.083-.02-.148-.752-.144-.731.003-.991.072-.578.151m10.308 0c.413.08 1.012.077 1.33-.007.318-.083-.021-.148-.752-.144-.732.003-.992.072-.578.151m-281.13.336c.506.076 1.254.074 1.663-.004.409-.079-.005-.142-.919-.139-.915.002-1.249.067-.744.143m273.649 0c.506.076 1.254.074 1.663-.004.409-.079-.005-.142-.919-.139-.915.002-1.249.067-.744.143m-289.198.759c-1.383.352-.022.367 1.663.019 1.118-.231 1.171-.275.332-.274a9.805 9.805 0 0 0-1.995.255m8.479 0l-1.496.233 1.33.01c.731.006 1.778-.103 2.327-.243 1.33-.339.016-.339-2.161 0m296.093.019c1.684.348 3.045.333 1.662-.019a9.796 9.796 0 0 0-1.995-.255c-.838-.001-.785.043.333.274m-7.228.216c.414.08 1.012.077 1.33-.007.318-.083-.021-.148-.752-.144-.732.003-.992.072-.578.151m-303.163.779c-.56.19-.29.22.832.09.914-.105 1.724-.247 1.801-.315.261-.234-1.802-.058-2.633.225m316.376-.017c1.407.358 2.614.358 1.496 0a6.435 6.435 0 0 0-1.662-.26c-.747.006-.73.032.166.26m-309.643.23c.32.083.844.083 1.164 0 .32-.084.058-.152-.582-.152s-.902.068-.582.152m230.063.616c-.557 1.223-.451 1.484.151.372.282-.519.45-1.006.374-1.082-.077-.076-.313.243-.525.71m73.179-.616c.32.083.844.083 1.164 0 .32-.084.058-.152-.582-.152s-.902.068-.582.152m-315.295.768c-1.117.358.09.358 1.496 0 .896-.228.913-.254.167-.26a6.442 6.442 0 0 0-1.663.26m6.355.027c-.803.158-1.545.372-1.65.477-.222.222 2.385-.16 3.608-.529 1.173-.353-.061-.321-1.958.052m58.049.664c.33.562.813 1.198 1.073 1.413.259.214.052-.246-.46-1.023-1.077-1.632-1.501-1.902-.613-.39m255.796-.707c.83.282 2.894.458 2.632.225-.076-.068-.887-.21-1.801-.316-1.121-.129-1.392-.1-.831.091m6.816.016c1.407.358 2.614.358 1.496 0a6.435 6.435 0 0 0-1.662-.26c-.747.006-.73.032.166.26m-332.003.997c-1.118.358.089.358 1.496 0 .896-.228.913-.254.166-.26a6.435 6.435 0 0 0-1.662.26m6.151 0c-.896.228-.913.255-.166.26a6.35 6.35 0 0 0 1.662-.26c1.118-.357-.089-.357-1.496 0m324.688 0a6.358 6.358 0 0 0 1.663.26c.746-.005.73-.032-.166-.26-1.407-.357-2.614-.357-1.497 0m6.318 0c.457.147 1.13.267 1.496.267.527 0 .492-.056-.166-.267-.457-.146-1.131-.266-1.496-.266-.527 0-.492.056.166.266m-341.812.998c-.659.211-.693.266-.167.266.366 0 1.039-.12 1.497-.266.658-.211.692-.266.166-.266-.366 0-1.039.12-1.496.266m5.718-.005c-.603.143-1.191.354-1.305.469-.221.22 1.504-.071 2.902-.49 1.154-.346-.116-.329-1.597.021m334.764.005a6.435 6.435 0 0 0 1.662.26c.747-.006.73-.032-.166-.26-1.406-.358-2.614-.358-1.496 0m5.985 0c.457.146 1.13.266 1.496.266.527 0 .492-.055-.166-.266-.457-.146-1.131-.266-1.496-.266-.527 0-.492.055.166.266m-350.624.997c-.847.365.027.365 1.164 0 .668-.214.701-.268.166-.276-.365-.005-.964.119-1.33.276m5.22-.004c-.603.143-1.191.354-1.305.468-.247.247 1.783-.118 2.735-.493.848-.333.02-.318-1.43.025m344.24-.04c.973.405 3.097.758 2.494.414-.274-.156-1.097-.376-1.829-.488-.839-.128-1.084-.101-.665.074m5.486.044c1.137.365 2.011.365 1.164 0-.366-.157-.964-.281-1.33-.276-.534.008-.502.062.166.276m-358.769 1.013c-.365.247-.23.278.498.115 1.223-.274 1.488-.464.638-.457-.351.002-.862.157-1.136.342m5.153-.015c-.419.18-.48.286-.166.286.274 0 .798-.129 1.164-.286.419-.18.481-.286.166-.286-.274 0-.798.129-1.164.286m352.453 0c.365.157.964.281 1.33.276.534-.008.502-.062-.167-.276-1.137-.364-2.011-.364-1.163 0m4.516-.213c.076.066.588.22 1.136.343.729.163.863.132.499-.115-.449-.304-1.969-.516-1.635-.228m-276.003 2.21c.951 1.098 1.901 2.101 2.111 2.229.21.128-.497-.771-1.571-1.997-1.074-1.226-2.024-2.229-2.111-2.229-.087 0 .62.898 1.571 1.997m-89.777-.984c-.364.246-.23.277.499.114 1.222-.273 1.488-.464.637-.457-.35.003-.862.157-1.136.343m4.821-.016c-.419.181-.48.286-.166.286.274 0 .798-.128 1.164-.286.419-.18.48-.285.166-.285-.274 0-.798.128-1.164.285m360.433 0c.365.158.964.282 1.33.276.534-.007.502-.061-.167-.276-1.137-.364-2.011-.364-1.163 0m4.184-.213c.076.066.587.22 1.136.343.728.163.863.132.498-.114-.449-.304-1.968-.516-1.634-.229m-368.44 1.211c-.685.219-.715.271-.167.294.366.016.89-.117 1.164-.294.583-.376.178-.376-.997 0m368.079-.015c.275.185.786.34 1.136.342.851.007.586-.183-.637-.457-.728-.163-.863-.132-.499.115m-256.691 1.794c1.006 1.062 2.577 2.544 3.491 3.293 1.915 1.57 1.444 1.08-2.494-2.59-2.105-1.962-2.359-2.142-.997-.703m165.736 1.629l-1.314 1.413 1.413-1.314c1.314-1.222 1.566-1.512 1.315-1.512-.055 0-.691.636-1.414 1.413m-22.274 1.663l-1.65 1.745 1.746-1.65c1.622-1.533 1.898-1.841 1.65-1.841-.053 0-.839.786-1.746 1.746m-161.099 0c1.378 1.468 1.677 1.732 1.677 1.482 0-.053-.711-.764-1.58-1.579l-1.579-1.483 1.482 1.58m179.886 1.828l-1.817 1.912 1.987-1.828c1.093-1.006 2.053-1.867 2.134-1.912.08-.046.004-.083-.17-.083-.174 0-1.134.86-2.134 1.911m-177.705.092c.213.345 4.976 4.006 5.813 4.469.954.526-.132-.388-3.09-2.603-1.608-1.204-2.833-2.044-2.723-1.866m154.275 1.849l-.997.858 1.081-.716c.594-.393 1.08-.779 1.08-.858 0-.249-.141-.163-1.164.716m-67.078.04c.414.08 1.012.077 1.33-.006.318-.084-.021-.149-.752-.145-.732.004-.992.072-.578.151m86.696 1.139c-2.008 1.63-2.193 1.817-1.33 1.344.738-.405 3.421-2.693 3.159-2.694-.092 0-.915.607-1.829 1.35m-135.661 4.944c.366.157.89.285 1.164.285.314 0 .253-.105-.166-.285-.366-.158-.89-.286-1.164-.286-.314 0-.253.105.166.286m3.658.997c.365.157.889.286 1.163.286.315 0 .253-.106-.166-.286-.366-.157-.889-.286-1.164-.286-.314 0-.252.106.167.286m96.425 0c-.419.18-.48.286-.166.286.274 0 .798-.129 1.164-.286.419-.18.48-.286.166-.286-.274 0-.798.129-1.164.286m-9.476 1.995c-1.118.358.09.358 1.496 0 .896-.228.913-.254.167-.26a6.435 6.435 0 0 0-1.663.26m-69.659 1.013c2.284.356 4.182.327 2.161-.032-.823-.147-2.02-.258-2.66-.247-.952.016-.861.067.499.279m63.595-.113c.413.08 1.012.077 1.33-.006.318-.084-.021-.149-.752-.145-.732.004-.992.072-.578.151m-2.66.333c.413.079 1.012.076 1.33-.007.318-.083-.021-.148-.752-.145-.732.004-.992.072-.578.152m-54.535.332a4.757 4.757 0 0 0 1.497 0c.411-.079.075-.144-.748-.144s-1.16.065-.749.144m49.543 0a4.757 4.757 0 0 0 1.497 0c.411-.079.074-.144-.749-.144s-1.159.065-.748.144m-44.056.342c.868.069 2.29.069 3.159 0 .868-.068.157-.125-1.58-.125s-2.448.057-1.579.125m35.91.001c1.052.066 2.772.066 3.824 0 1.051-.066.191-.12-1.912-.12-2.103 0-2.964.054-1.912.12m-23.253.336c3.807.054 9.942.054 13.633 0 3.691-.053.576-.097-6.922-.097-7.498 0-10.518.044-6.711.097m-109.756.406c1.595.158 3.391.374 3.99.482.98.177 1.008.162.276-.151-.447-.191-2.242-.408-3.99-.482l-3.177-.134 2.901.285m-5.063.347c-.35.23-.153.264.666.114 1.434-.263 1.704-.453.637-.446-.442.003-1.028.152-1.303.332m-1.993 1.158c-.429.457-.717.873-.64.925.077.052.542-.322 1.033-.83.491-.509.779-.925.64-.925-.14 0-.604.374-1.033.83m61.345-.165c.366.157.89.286 1.164.286.314 0 .253-.106-.166-.286-.366-.157-.89-.286-1.164-.286-.315 0-.253.106.166.286m6.983 1.995c.994.427 1.824.427 1.163 0-.274-.177-.798-.314-1.163-.304l-.665.018.665.286m107.232 0c-.661.427.169.427 1.163 0l.665-.286-.665-.018c-.365-.01-.889.127-1.163.304m-176.216.262c-.006.236.551.991 1.236 1.678.695.695.862.8.377.236-.479-.557-1.036-1.311-1.237-1.677-.202-.366-.371-.472-.376-.237m73.306.736c.994.427 1.825.427 1.164 0-.274-.178-.798-.314-1.164-.304l-.665.018.665.286m98.421 0c-.847.364.027.364 1.164 0 .668-.214.7-.268.166-.276-.366-.006-.964.118-1.33.276m-93.6.997c.458.147 1.131.271 1.497.276l.665.01-.665-.286c-.366-.157-1.039-.281-1.497-.276l-.831.01.831.266m88.28 0l-.665.286.665-.01c.366-.005 1.039-.129 1.496-.276l.831-.266-.831-.01c-.457-.005-1.13.119-1.496.276m-151.686 1.131c1.296 1.2 3.251 1.028 3.213-.283-.005-.192-.162-.087-.349.233-.456.783-1.669.734-2.837-.116l-.96-.697.933.863m69.558-.133c1.406.358 2.614.358 1.496 0a6.35 6.35 0 0 0-1.662-.26c-.747.005-.73.032.166.26m75.644 0l-.831.266.831-.006c.457-.004 1.28-.121 1.829-.26l.997-.254-.997-.006c-.549-.004-1.372.113-1.829.26m-135.626.748c.08.046.965.831 1.967 1.745l1.822 1.663-1.65-1.746c-.908-.96-1.793-1.745-1.967-1.745-.175 0-.252.037-.172.083m65.801.045c0 .071.441.193.979.273.539.079.905.021.812-.129-.165-.267-1.791-.397-1.791-.144m62.842.13c0 .142.599.201 1.33.131.732-.07 1.33-.186 1.33-.258 0-.072-.598-.131-1.33-.131-.731 0-1.33.116-1.33.258m-146.633 1.559c0 .092.748.546 1.663 1.009.914.463 1.662.768 1.662.676 0-.091-.748-.545-1.662-1.009-.915-.463-1.663-.767-1.663-.676m81.453 2.09l-2.151 2.244 2.244-2.152c2.085-1.998 2.397-2.337 2.152-2.337-.051 0-1.061 1.01-2.245 2.245m69.337.415c.9.915 1.712 1.663 1.803 1.663.092 0-.57-.748-1.471-1.663-.9-.914-1.712-1.662-1.804-1.662-.091 0 .571.748 1.472 1.662m-147.132-.575c0 .072.71.635 1.579 1.253.869.618 2.477 1.949 3.574 2.958 1.561 1.435 1.706 1.521.665.397-1.571-1.698-5.818-5.061-5.818-4.608m19.636 1.988c1.368 1.881 1.972 2.474 1.352 1.33-.173-.32-.861-1.18-1.529-1.912-1.184-1.297-1.18-1.283.177.582m-1.349 2.48c.274.1.873.499 1.33.888l.831.705-.806-.914c-.443-.503-1.042-.902-1.33-.888-.448.022-.452.052-.025.209m3.282.263c.18.366.571.965.868 1.33l.542.665-.327-.665a8.494 8.494 0 0 0-.868-1.33l-.541-.665.326.665m51.426 1.692c-.31.473-.506.917-.436.987.07.07.39-.317.71-.86.717-1.213.503-1.312-.274-.127m-64.654 1.467c1.331 1.833 1.83 2.379 1.365 1.497-.193-.366-.823-1.189-1.401-1.829l-1.05-1.164 1.086 1.496m12.319-.273c-.025.49-.28 1.126-.568 1.413-.287.288-.367.523-.178.523.526 0 1.093-1.274.933-2.096-.121-.622-.149-.598-.187.16m2.515-.252c.559.992 4.423 5.724 5.452 6.677.592.548.114-.125-1.064-1.497-1.178-1.371-2.65-3.204-3.271-4.073-1.082-1.512-1.678-2.103-1.117-1.107m46.716 5.746c-.492 1.603-.253 1.841.266.266.22-.665.335-1.273.256-1.352-.079-.08-.314.409-.522 1.086m-42.764 1.4c.134.259.354.932.489 1.497.226.943.248.957.28.175.018-.468-.202-1.141-.49-1.496s-.413-.434-.279-.176m128.198.029c0 .275.128.798.286 1.164.18.419.285.481.285.166 0-.274-.128-.798-.285-1.163-.181-.42-.286-.481-.286-.167m-86.308 1.52c-.122.488-.158.95-.079 1.029.078.078.242-.256.364-.744.123-.487.159-.95.08-1.028-.078-.079-.242.256-.365.743m-45.753.385c.197.407.692.901 1.099 1.099.689.333.698.324.132-.132a8.71 8.71 0 0 1-1.099-1.099c-.456-.566-.465-.557-.132.132m8.88.449c.412.5 2.436 1.773 2.436 1.533 0-.077-.636-.56-1.413-1.073-.778-.512-1.238-.719-1.023-.46m78.994.317c-1.151.462-.886.666.333.255.594-.2 1.143-.417 1.219-.481.27-.228-.815-.07-1.552.226m2.624.625l.785.635.169 36.356.169 36.355.08-36.115c.087-39.327.151-37.867-1.643-37.867-.19 0 .008.286.44.636m-3.883.777c-.088.229-.12 16.426-.073 35.994l.086 35.578.166-35.994c.091-19.796.124-35.993.072-35.993-.051 0-.164.187-.251.415m-94.481.749c.281.548.76 1.296 1.064 1.662.304.366.216.067-.194-.665-.907-1.614-1.585-2.392-.87-.997m140.947.166c-.011.64.1 1.837.246 2.66.36 2.021.388.122.032-2.161-.211-1.36-.262-1.451-.278-.499m-125.57 1.404c-.615.878-.659 1.462-.134 1.786.239.148.294.091.145-.149-.376-.608.124-1.726.914-2.044.541-.218.58-.295.155-.311-.309-.012-.795.311-1.08.718m28.244.258c-.42.18-.481.286-.167.286.275 0 .798-.129 1.164-.286.419-.18.481-.285.166-.285-.274 0-.798.128-1.163.285m4.672.979c-.321.355-.506.841-.41 1.08.134.335.18.326.2-.037.015-.26.274-.747.577-1.081.302-.335.475-.608.384-.608-.092 0-.429.29-.751.646m-19.136.002c.82.279 3.566.467 3.297.225-.076-.069-1.036-.211-2.133-.317-1.293-.124-1.703-.092-1.164.092m8.312.017l-1.496.232 1.496.017c.823.009 1.871-.103 2.328-.249l.831-.266-.831.016c-.457.01-1.505.122-2.328.25m36.132.748c-.995 1.327-2.222 3.729-2.201 4.309.008.236.447-.504.974-1.644.528-1.14 1.366-2.449 1.862-2.909.497-.46.739-.837.539-.837-.2 0-.729.487-1.174 1.081m1.934 34.165c0 19.476.04 27.443.089 17.705.049-9.738.049-25.673 0-35.411-.049-9.738-.089-1.771-.089 17.706m42.886-34.498c-.087.229-.119 15.453-.071 33.833l.087 33.416.081-33.666c.045-18.516.182-33.666.305-33.666s.534.262.914.582c.691.582.691.581.058-.166-.712-.842-1.141-.945-1.374-.333m-88.904 1.33c.076.046.587.458 1.136.915l.998.831-.807-.914c-.443-.503-.954-.915-1.136-.915-.181 0-.267.038-.191.083m12.003.428c1.179.641 1.459 1.628.778 2.748l-.546.898.685-.785c1.035-1.186.124-3.405-1.378-3.358-.237.007-.03.231.461.497m100.18 25.591c0 13.533.042 19.02.092 12.195.05-6.826.05-17.898 0-24.605-.051-6.708-.092-1.123-.092 12.41m-134.488-20.948c.993 1.006 1.881 1.829 1.972 1.829.091 0-.646-.823-1.64-1.829-.993-1.006-1.881-1.829-1.972-1.829-.092 0 .646.823 1.64 1.829m21.03-.934c.32.083.844.083 1.164 0 .32-.084.058-.152-.582-.152s-.902.068-.582.152m42.311 2.098c-.126.575-.16 1.114-.075 1.199.085.085.249-.324.366-.908.117-.584.151-1.124.076-1.199-.076-.076-.24.333-.367.908m52.436.166c0 .366.119 1.039.266 1.496.211.659.266.693.266.167 0-.366-.12-1.039-.266-1.497-.211-.658-.266-.692-.266-.166m-112.12 1.822c.64.578 1.463 1.208 1.829 1.401.883.464.336-.034-1.496-1.365l-1.497-1.087 1.164 1.051m59.005 16.965c0 7.406.044 10.436.097 6.733.054-3.704.054-9.763 0-13.467-.053-3.703-.097-.673-.097 6.734m54.202 7.315c0 11.429.042 16.105.093 10.39s.051-15.066 0-20.781c-.051-5.715-.093-1.039-.093 10.391m-71.821.332c0 10.15.042 14.302.094 9.227.051-5.075.051-13.379 0-18.454-.052-5.075-.094-.923-.094 9.227m-26.423-17.623a6.35 6.35 0 0 0 1.662.26c.747-.005.73-.032-.166-.26-1.406-.357-2.614-.357-1.496 0m20.449 0l-1.33.239 1.163.014c.64.007 1.538-.106 1.995-.253 1.069-.342.083-.342-1.828 0m-12.386.913c1.417.062 3.736.062 5.154 0 1.417-.063.257-.114-2.577-.114-2.835 0-3.994.051-2.577.114m35.879 35.33c-.032.64-.13 1.762-.217 2.494l-.157 1.33.341-1.33c.187-.732.285-1.854.217-2.494l-.124-1.164-.06 1.164m72.158.166c-.006.366.118.965.276 1.33.364.848.364-.026 0-1.163-.214-.669-.269-.701-.276-.167m4.931 9.643c.62.64 1.202 1.164 1.294 1.164.091 0-.342-.524-.962-1.164-.62-.64-1.203-1.164-1.294-1.164-.092 0 .341.524.962 1.164m-82.586 3.243c-1.257 1.292-1.856 2.038-1.33 1.66.925-.667 2.523-2.295 3.425-3.49.789-1.045.229-.557-2.095 1.83m63.549-1.581c.378.549 1.184 1.447 1.789 1.996.814.736.722.563-.353-.666-1.962-2.242-2.25-2.508-1.436-1.33m26.352 7.532c-.64.561-.863.868-.495.682.607-.307 2.113-1.748 1.793-1.716-.074.007-.658.473-1.298 1.034m-111.812 1.187c.591.074 1.638.075 2.328.003s.207-.132-1.073-.134c-1.28-.001-1.845.058-1.255.131m106.741.001c.594.074 1.567.074 2.161 0 .595-.074.108-.134-1.08-.134-1.189 0-1.675.06-1.081.134m-76.743 3.666l-1.146 1.247 1.247-1.146c.686-.63 1.247-1.191 1.247-1.247 0-.254-.281-.014-1.348 1.146m49.893.582c.621.64 1.203 1.164 1.295 1.164.091 0-.342-.524-.962-1.164-.62-.64-1.203-1.164-1.294-1.164-.092 0 .341.524.961 1.164m-53.387 2.244l-.977 1.081 1.081-.976c.594-.538 1.081-1.024 1.081-1.081 0-.257-.275-.031-1.185.976m57.427 2.633c-.027.488-.136 1.162-.241 1.497-.181.575-.171.576.188.018.208-.324.317-.998.241-1.496l-.138-.906-.05.887m-58.861.726c-.046 1.43 1.659 3.553 2.835 3.528.416-.009.293-.154-.383-.448-1.366-.595-1.918-1.347-2.184-2.976l-.226-1.384-.042 1.28m6.941 3.208c-.658.211-.693.267-.166.267.366 0 1.039-.12 1.496-.267.658-.21.693-.266.166-.266-.365 0-1.039.12-1.496.266m46.717 0l-1.995.221 1.828.033c1.006.018 2.128-.096 2.494-.254.742-.318.552-.318-2.327 0" fill="#997d6f"/>
        <path d="M113.078 6.441c.077.068.887.21 1.801.316 1.122.129 1.392.1.832-.091-.831-.282-2.894-.458-2.633-.225m163.231.225c-.56.191-.29.22.831.091.915-.106 1.725-.248 1.802-.316.261-.233-1.802-.057-2.633.225m8.596-.063c.43.121.99.667 1.244 1.214.377.814.424.844.258.163-.289-1.18-.761-1.668-1.577-1.629-.66.031-.655.048.075.252M119.534 7.648c.366.157.89.285 1.164.285.315 0 .253-.105-.166-.285-.366-.158-.889-.286-1.164-.286-.314 0-.253.105.166.286m151.954 0c-.419.18-.481.285-.166.285.274 0 .798-.128 1.163-.285.42-.181.481-.286.167-.286-.275 0-.798.128-1.164.286m-167.516 4.904c-.257.459-.621 2.246-.414 2.039.247-.247.852-2.288.678-2.288-.068 0-.187.112-.264.249m183.97.733c.174.606.408 1.194.52 1.306.313.313-.229-1.747-.552-2.1-.156-.17-.142.187.032.794m.873 3.174c.273 1.222.464 1.488.457.637-.003-.35-.157-.862-.343-1.136-.246-.364-.277-.23-.114.499M196.441 19.2c1.518.062 3.912.062 5.32-.001 1.409-.062.168-.112-2.759-.112-2.926.001-4.078.052-2.561.113m-9.492.327c.686.072 1.808.072 2.494 0 .686-.071.125-.13-1.247-.13-1.371 0-1.932.059-1.247.13m20.228-.121c.076.067 1.634.194 3.463.282 1.829.089 2.876.052 2.328-.081-1.016-.248-6.044-.422-5.791-.201m-105.224 1.056c-.114.297-.192.864-.173 1.261.021.456.134.294.307-.441.29-1.235.211-1.72-.134-.82m187.879.652c.252 1.643.444 1.923.437.637-.003-.533-.148-1.194-.323-1.468-.216-.34-.253-.075-.114.831m-114.437-.502c-.414.176.026.212 1.164.096 1.005-.102 1.891-.24 1.967-.306.286-.247-2.494-.061-3.131.21m44.084-.209c.076.066.812.209 1.635.317.999.133 1.275.1.831-.096-.635-.281-2.755-.472-2.466-.221m-50.399 1.205c-.126.204.21.249.895.118 1.47-.28 1.597-.446.341-.446-.568 0-1.124.148-1.236.328m57.382-.209c.076.065.662.214 1.302.332.819.15 1.016.116.665-.114-.451-.295-2.297-.5-1.967-.218m5.32.998c.076.066.587.22 1.136.343.728.163.863.132.498-.115-.449-.304-1.968-.516-1.634-.228m-72.347 1.211c-.243.393.082.393.997 0 .641-.276.639-.287-.063-.309-.401-.013-.821.126-.934.309m-3.99.997c-.243.393.082.393.997 0 .641-.275.639-.286-.063-.309-.401-.013-.821.126-.934.309m-54.487 2.743c-.274 1.02-.219 11.913.063 12.623.124.313.226-2.567.226-6.401 0-3.833-.02-6.97-.044-6.97-.025 0-.135.337-.245.748m190.119 6.235c0 3.383.05 4.767.11 3.075.06-1.691.06-4.459 0-6.151-.06-1.692-.11-.307-.11 3.076M101.746 45.367c0 .446.122.887.272.98.15.092.208-.273.128-.812-.174-1.188-.4-1.283-.4-.168m188.156.113c-.109.661-.06.971.124.787.168-.168.249-.659.181-1.091-.105-.666-.152-.619-.305.304m-187.135 3.96c-.013.401.126.821.309.934.393.243.393-.082 0-.997-.276-.642-.287-.639-.309.063m186.227.285c-.039.797.251 1.293 1.363 2.327l1.414 1.315-1.223-1.33c-.672-.732-1.286-1.779-1.363-2.328l-.141-.997-.05 1.013m-185.106 2.937c.124.393-.12 1.041-.657 1.746-.47.616-.779 1.12-.688 1.12.64 0 1.882-2.345 1.531-2.892-.363-.567-.373-.566-.186.026m188.351 1.48c.18.335.588.821.907 1.081.359.291.279.059-.211-.61-.873-1.192-1.2-1.414-.696-.471m1.705 1.903c.013.334 1.646 2.438 1.649 2.124.001-.101-.373-.691-.83-1.311-.457-.62-.826-.986-.819-.813m13.835 30.073c.263 1.434.452 1.705.445.637-.002-.442-.152-1.028-.332-1.302-.23-.351-.263-.154-.113.665m-220.783 1.4c-.112.419-.191 1.061-.175 1.426.016.366.166.082.333-.632.324-1.381.186-2.077-.158-.794m221.787 5.583c.113 1.005.258 1.891.324 1.967.282.326.08-2.845-.209-3.297-.213-.334-.251.108-.115 1.33M85.999 96.01c-.27 1.633-.227 10.137.061 12.053.123.823.224-1.833.224-5.902 0-4.068-.018-7.398-.039-7.398-.022 0-.133.561-.246 1.247m222.956 17.373a46.478 46.478 0 0 1-.229 3.159l-.161 1.33.346-1.103c.191-.607.294-2.028.229-3.159l-.117-2.056-.068 1.829m-222.427 1.663c0 .64.068.902.152.582.083-.32.083-.844 0-1.164-.084-.32-.152-.058-.152.582m.278 3.352c.013.625.153 1.436.312 1.802.185.427.22.072.096-.998-.228-1.977-.44-2.395-.408-.804m221.14 6.457a15.53 15.53 0 0 1-.229 1.828l-.171.832.357-.82c.197-.451.3-1.274.229-1.829l-.129-1.009-.057.998m-220.16.193c.002.442.152 1.028.332 1.303.23.351.263.154.113-.665-.263-1.434-.452-1.705-.445-.638m55.29 6.623c0 1.006.062 1.417.138.914a7.365 7.365 0 0 0 0-1.829c-.076-.502-.138-.091-.138.915m-77.822 7.559c.868.069 2.29.069 3.158 0 .869-.068.158-.124-1.579-.124-1.737 0-2.448.056-1.579.124m20.448-.001c.778.07 2.049.07 2.827 0 .777-.07.141-.127-1.413-.127-1.555 0-2.191.057-1.414.127m224.772 0c.777.07 2.049.07 2.826 0 .777-.07.141-.127-1.413-.127s-2.19.057-1.413.127m20.459.002c.874.068 2.221.068 2.992-.002.772-.07.057-.126-1.589-.125-1.646.001-2.277.058-1.403.127m-278.564.429c-.914.131.133.162 2.328.069 2.194-.093 4.052-.223 4.128-.289.23-.202-4.674-.034-6.456.22m287.808-.22c.077.066 1.934.199 4.129.294 2.586.113 3.346.082 2.161-.088-1.882-.27-6.537-.422-6.29-.206m-293.876.773c.32.083.844.083 1.164 0 .32-.084.058-.152-.582-.152s-.902.068-.582.152m305.237 0c.32.083.844.083 1.164 0 .32-.084.058-.152-.582-.152s-.902.068-.582.152m-311.471.448c-.629.168-.199.199 1.163.083 1.189-.101 2.224-.239 2.3-.306.252-.222-2.448-.048-3.463.223m315.405-.22c.077.069 1.186.209 2.466.312 1.789.143 2.02.119.998-.106-1.344-.296-3.719-.437-3.464-.206m-281.573.455c1.6.061 4.218.061 5.818 0 1.601-.061.291-.111-2.909-.111-3.2 0-4.51.05-2.909.111m245.054 0c1.6.061 4.218.061 5.818 0 1.601-.061.291-.111-2.909-.111-3.2 0-4.51.05-2.909.111m-257.507.333c1.517.061 3.911.061 5.32-.001 1.408-.062.167-.113-2.759-.113-2.926.001-4.079.052-2.561.114m25.42-.002c1.052.066 2.772.066 3.824 0 1.051-.066.191-.12-1.912-.12-2.103 0-2.963.054-1.912.12m220.102 0a56.87 56.87 0 0 0 4.655.001c1.334-.063.33-.115-2.23-.116-2.56 0-3.651.051-2.425.115m24.969.002c1.609.061 4.152.06 5.652-.001s.183-.111-2.926-.111-4.336.051-2.726.112m-300.349.434c-.358.244-.122.277.831.117 1.649-.276 1.915-.468.637-.462-.533.003-1.194.158-1.468.345m23.53-.109c.598.074 1.496.073 1.995-.003.5-.076.011-.136-1.086-.135-1.098.002-1.506.064-.909.138m286.949 0c.598.074 1.496.073 1.995-.003.5-.076.011-.136-1.086-.135-1.097.002-1.506.064-.909.138m23.048-.121c.076.066.812.209 1.635.318.999.132 1.275.1.831-.096-.635-.282-2.755-.472-2.466-.222m-272.498.961c.124.411.363.894.53 1.073.167.179.136-.158-.07-.748-.421-1.208-.81-1.482-.46-.325m-47.812-.175c.594.074 1.567.074 2.161 0 .594-.074.108-.134-1.081-.134-1.188 0-1.675.06-1.08.134m307.232 0c.594.074 1.566.074 2.161 0 .594-.074.108-.134-1.081-.134-1.188 0-1.675.06-1.08.134m-327.764.442c-.358.243-.122.276.831.117 1.649-.276 1.915-.469.637-.462-.533.003-1.194.158-1.468.345m17.373-.121c.32.084.844.084 1.164 0 .32-.084.058-.152-.582-.152s-.902.068-.582.152m314.547 0c.32.084.844.084 1.164 0 .32-.084.058-.152-.582-.152s-.902.068-.582.152m16.57-.111c.076.066.662.215 1.302.332.819.151 1.016.117.665-.113-.451-.295-2.297-.501-1.967-.219m-337.933.782a4.751 4.751 0 0 0 1.496 0c.411-.08.075-.145-.748-.145s-1.16.065-.748.145m327.847 0a4.751 4.751 0 0 0 1.496 0c.411-.08.075-.145-.748-.145s-1.16.065-.748.145m-344.389.445c-.365.247-.23.277.498.114 1.223-.273 1.488-.463.638-.457-.351.003-.862.157-1.136.343m360.792-.228c.076.066.587.22 1.136.342.729.163.863.133.499-.114-.449-.304-1.969-.516-1.635-.228m-351.894.781c.414.079 1.012.076 1.33-.007.318-.083-.021-.148-.752-.145-.732.004-.992.072-.578.152m343.475 0c.413.079 1.012.076 1.33-.007.317-.083-.021-.148-.752-.145-.732.004-.992.072-.578.152m-357.777.456c-.605.353-.792 1.467-.297 1.772.157.097.215-.185.131-.626-.129-.678.021-.853.963-1.124.656-.189.842-.329.45-.341-.365-.011-.927.133-1.247.319m372.21-.034c.489.148 1.088.388 1.33.534.35.21.347.148-.014-.297-.251-.309-.85-.549-1.33-.534l-.874.029.888.268m-363.814.34c-1.136.239-1.14.245-.166.265.549.011 1.297-.108 1.662-.265.8-.344.136-.344-1.496 0m354.946-.009c.635.281 2.755.472 2.466.221-.076-.066-.812-.209-1.635-.317-.999-.132-1.275-.1-.831.096m-362.095 1.354c-.463.21-.262.24.665.099.732-.111 1.393-.257 1.469-.324.286-.252-1.495-.064-2.134.225m288.648.178c-.393 1.024-.179 1.136 2.042 1.073l2.245-.064-2.096-.119c-1.902-.107-2.076-.178-1.889-.767.245-.773-.013-.878-.302-.123m-210.842 1l-2.993.432 2.827-.173c1.554-.095 2.968-.311 3.142-.48.173-.169.248-.285.166-.259-.082.027-1.496.242-3.142.48m215.877.372a4.751 4.751 0 0 0 1.496 0c.412-.08.075-.145-.748-.145s-1.16.065-.748.145m-226.098.333c.414.079 1.012.076 1.33-.007.318-.083-.02-.148-.752-.145-.731.004-.991.072-.578.152m234.414 0c.414.079 1.012.076 1.33-.007.318-.083-.02-.148-.752-.145-.731.004-.991.072-.578.152m-241.317.423c-.469.147.255.185 1.662.087 1.372-.095 2.557-.227 2.633-.293.266-.231-3.471-.052-4.295.206m245.082-.206c.076.066 1.335.198 2.798.294 1.509.099 2.229.064 1.663-.08-1.008-.258-4.718-.436-4.461-.214m-255.556 1.202c-.401.167.126.206 1.33.097 1.097-.1 2.058-.235 2.134-.301.283-.246-2.824-.063-3.464.204m29.177-.086a7.365 7.365 0 0 0 1.829 0c.503-.077.091-.139-.914-.139-1.006 0-1.418.062-.915.139m209.144.004c.686.071 1.808.071 2.494 0 .686-.072.124-.131-1.247-.131-1.372 0-1.933.059-1.247.131m28.872-.123c.076.066.962.204 1.968.306 1.138.116 1.577.08 1.163-.096-.637-.271-3.417-.457-3.131-.21m-249.903.545l-2.66.211 2.328.042c1.28.023 2.926-.082 3.657-.233 1.613-.334.714-.339-3.325-.02m232.419.024c1.313.267 6.06.422 5.791.189-.076-.066-1.709-.197-3.63-.29-2.22-.108-3.007-.071-2.161.101m-258.021.644c-.428.185-.072.219.997.096.914-.106 1.725-.246 1.801-.312.289-.248-2.163-.059-2.798.216m20.369-.1c.414.08 1.012.077 1.33-.007.318-.083-.02-.148-.752-.144-.731.003-.991.072-.578.151m245.054 0c.414.08 1.012.077 1.33-.007.318-.083-.02-.148-.752-.144-.731.003-.991.072-.578.151m18.727-.116c.077.066.887.206 1.801.312 1.07.123 1.426.089.998-.096-.635-.275-3.087-.464-2.799-.216m-270.684.546l-1.829.224 1.663.021c.914.012 2.036-.099 2.493-.245 1.021-.327.341-.327-2.327 0m257.855.017c.647.261 4.406.437 4.129.193-.076-.067-1.186-.199-2.466-.292-1.332-.098-2.043-.055-1.663.099m20.477.435c.076.065.737.211 1.468.323.906.139 1.171.102.832-.114-.455-.29-2.623-.487-2.3-.209m-287.642.545l-1.496.233 1.33.027c.731.014 1.629-.102 1.995-.26.77-.331.3-.331-1.829 0m276.808.004c.637.27 3.417.457 3.131.209-.076-.066-.962-.203-1.967-.306-1.138-.116-1.578-.079-1.164.097m-294.264.677c-.464.21-.262.24.665.099.731-.112 1.392-.258 1.468-.325.286-.252-1.495-.063-2.133.226m9.808.317l-1.163.245 1.163.039c.64.021 1.389-.107 1.663-.284.605-.391.194-.391-1.663 0m292.27-.003c.45.294 3.295.501 2.964.216-.076-.066-.886-.214-1.801-.33-1.135-.144-1.504-.108-1.163.114m-307.565.673c-.351.23-.154.263.665.113 1.434-.263 1.705-.452.638-.445-.442.002-1.028.152-1.303.332m322.887-.218c.077.066.588.22 1.137.343.728.162.863.132.498-.115-.449-.304-1.968-.516-1.635-.228m-314.242.545c-1.15.243-1.152.246-.166.284.549.021 1.222-.106 1.496-.284.554-.357.37-.357-1.33 0m305.902.005c.275.175.935.32 1.469.323 1.286.007 1.006-.185-.638-.437-.905-.139-1.17-.103-.831.114m-319.709.674c-.14.227.111.268.729.119 1.274-.306 1.394-.465.352-.465-.477 0-.963.156-1.081.346m333.037-.227c.392.338 2.003.54 1.809.227-.117-.19-.604-.346-1.081-.346-.476 0-.804.054-.728.119m-7.343.541c.275.18.861.33 1.303.332 1.067.007.796-.182-.638-.445-.819-.15-1.016-.117-.665.113m-330.341.67c-.243.393.083.393.998 0 .641-.276.639-.287-.064-.309-.4-.013-.821.126-.934.309m343.143 0c.915.393 1.24.393.997 0-.113-.183-.533-.322-.934-.309-.702.022-.705.033-.063.309m-335.828.332c-.92.235-.933.257-.166.289.457.018 1.056-.111 1.33-.289.566-.365.274-.365-1.164 0m328.346-.004c.275.18.861.329 1.303.332 1.067.007.796-.182-.638-.446-.818-.15-1.016-.116-.665.114m-333.167 1.002c-.685.219-.714.271-.166.294.366.016.889-.117 1.164-.294.582-.377.178-.377-.998 0m338.155-.015c.274.185.785.34 1.136.342.851.007.585-.183-.637-.457-.729-.163-.863-.132-.499.115m-342.644 1.012l-.997.254.895.04c.492.021.987-.111 1.1-.294.113-.182.159-.314.103-.293-.057.022-.552.154-1.101.293m347.25.085c.168.167.659.249 1.091.181.666-.105.619-.152-.304-.305-.661-.11-.971-.061-.787.124m9.026.199c.275.16.948.389 1.497.507.638.138.818.111.498-.076-.274-.161-.947-.389-1.496-.508-.638-.138-.818-.11-.499.077m-366.417.397c-.364.246-.23.277.499.114 1.222-.273 1.488-.464.637-.457-.35.003-.862.157-1.136.343m5.985.317c-.685.219-.714.271-.166.294.366.016.889-.117 1.164-.294.582-.377.178-.377-.998 0m355.445-.015c.274.185.785.34 1.136.342.851.007.585-.183-.637-.457-.729-.163-.863-.132-.499.115m-273.317 1.449c0 .057.486.544 1.081 1.081l1.08.976-.976-1.08c-.91-1.008-1.185-1.234-1.185-.977m189.887 2.35l-.802 1.037.951-.904c.523-.497.884-.964.803-1.037-.082-.073-.51.334-.952.904m-184.567 2.97c0 .057.486.544 1.081 1.081l1.08.976-.976-1.08c-.91-1.008-1.185-1.234-1.185-.977m4.361 3.824c1.533 1.165 2.954 2.101 2.954 1.945 0-.202-3.257-2.548-3.537-2.548-.115 0 .147.271.583.603m171.865 1.1c-1.159 1.016-1.159 1.017-.093.308.589-.391 1.159-.855 1.267-1.029.32-.519.054-.355-1.174.721M83.051 180.46c.782.07 1.979.069 2.66-.002.681-.072.041-.129-1.422-.128-1.463.001-2.02.06-1.238.13m6.558.754c.366.157.89.285 1.164.285.314 0 .253-.105-.166-.285-.366-.158-.89-.286-1.164-.286-.314 0-.253.106.166.286m54.198 2.66c.366.157.89.285 1.164.285.314 0 .253-.105-.166-.285-.366-.158-.89-.286-1.164-.286-.314 0-.253.106.166.286m112.053 0c-.419.18-.48.285-.166.285.274 0 .798-.128 1.164-.285.419-.18.48-.286.166-.286-.274 0-.798.128-1.164.286m-3.99.997c-.419.18-.48.286-.166.286.274 0 .798-.129 1.164-.286.419-.18.48-.286.166-.286-.274 0-.798.129-1.164.286m-174.192 1.081c.102.228.733.856 1.403 1.394l1.218.978-1.314-1.394c-1.403-1.488-1.598-1.634-1.307-.978m74.442-.083c.365.157.964.281 1.33.276.534-.008.502-.062-.167-.276-1.136-.364-2.011-.364-1.163 0m94.929 0c-.668.214-.701.268-.166.276.366.005.964-.119 1.33-.276.847-.364-.027-.364-1.164 0m-89.609.982c.638.289 2.419.477 2.133.226-.076-.068-.737-.214-1.468-.325-.927-.141-1.129-.111-.665.099m84.123.015c-.905.23-.921.255-.166.27.457.009 1.13-.113 1.496-.27.82-.352.054-.352-1.33 0m-140.446.416c.082.046 1.266 1.13 2.633 2.41l2.484 2.328-2.318-2.411c-1.275-1.326-2.46-2.41-2.632-2.41-.173 0-.248.037-.167.083m62.807.582a6.435 6.435 0 0 0 1.662.26c.747-.006.73-.032-.166-.26-1.407-.358-2.614-.358-1.496 0m70.656 0c-.896.228-.913.254-.166.26a6.435 6.435 0 0 0 1.662-.26c1.118-.358-.089-.358-1.496 0m-153.726 2.223c-.574 1.072-.472 1.701.135.835.288-.412.463-.931.388-1.154-.081-.245-.289-.118-.523.319m83.723 1.684l-1.817 1.911 1.912-1.817c1.051-1 1.912-1.86 1.912-1.912 0-.247-.318.041-2.007 1.818m-83.067-.582c0 .274.128.798.286 1.163.18.42.285.481.285.167 0-.275-.128-.798-.285-1.164-.181-.419-.286-.481-.286-.166m-1.815 2.454c-.125.326-.218.842-.206 1.147.014.368.13.284.342-.248.177-.441.269-.957.206-1.147-.063-.189-.217-.077-.342.248m2.977 1.702c.349 1.582.826 2.532.583 1.164-.113-.64-.34-1.388-.505-1.663-.195-.326-.222-.153-.078.499m-4.012 2.019c-.122.487-.158.95-.079 1.028.078.079.242-.256.364-.743.123-.488.159-.95.08-1.029-.078-.078-.242.256-.365.744m4.839.641c-.015.183.18 1.081.434 1.995.255.914.465 1.363.467.998.005-.708-.853-3.556-.901-2.993m-5.616 2.826c0 .64.068.902.152.582.083-.32.083-.844 0-1.164-.084-.32-.152-.058-.152.582m17.846-.391c.202.378.531.788.732.912.26.161.259.03-.004-.462-.202-.378-.531-.788-.731-.912-.261-.161-.26-.03.003.462m-12.195 2.324c-.232.53-.756 1.125-1.163 1.322-.408.197-.563.368-.345.38.689.039 2.178-1.474 2.051-2.085-.092-.445-.219-.355-.543.383m-5.396-.489c0 .589.726 1.556 1.421 1.892.626.303.661.291.226-.076-.282-.238-.769-.803-1.08-1.256-.312-.452-.567-.704-.567-.56m34.913-.01c0 .058.486.544 1.08 1.081l1.081.977-.977-1.081c-.91-1.007-1.184-1.234-1.184-.977m3.325 3.325c0 .058.486.544 1.08 1.081l1.081.977-.977-1.081c-.91-1.007-1.184-1.234-1.184-.977m80.878 25.732c-.09 23.298-.335 21.358 2.657 21.057l1.752-.176.003-20.698.004-20.699-.089 20.615-.09 20.616h-3.98l-.088-20.699-.088-20.698-.081 20.682m-53.946-18.173c-.364.247-.229.277.499.114 1.223-.273 1.488-.463.637-.457-.35.003-.861.157-1.136.343m-38.634 1.814c.193.365.823 1.188 1.401 1.828l1.051 1.164-1.087-1.496c-1.331-1.832-1.829-2.379-1.365-1.496m139.634 16.353c.048 9.11.128 18.285.178 20.388.051 2.103.11-5.004.131-15.794.021-10.789-.059-19.964-.178-20.388-.119-.424-.178 6.684-.131 15.794m-134.749-10.535c.715.732 1.374 1.33 1.465 1.33.092 0-.418-.598-1.132-1.33-.714-.731-1.374-1.33-1.465-1.33-.091 0 .418.599 1.132 1.33m115.062-.498c.13.549.364 1.137.52 1.307.156.171.141-.186-.033-.793-.405-1.414-.799-1.829-.487-.514m-51.667 4.364a27.555 27.555 0 0 1-.218 2.161l-.165 1.122.35-1.115c.192-.613.29-1.586.218-2.161l-.131-1.046-.054 1.039m52.905 1.122c0 .823.065 1.16.145.748a4.751 4.751 0 0 0 0-1.496c-.08-.412-.145-.075-.145.748m-72.908 4.68c-.758.265-.735.282.249.191l1.081-.101v25.457l-1.247.209c-1.752.293-2.055.43-1.019.46.491.015 1.276-.119 1.746-.298l.852-.324v-12.976c0-10.176-.089-12.968-.415-12.942-.229.018-.79.164-1.247.324m-22.432.992c.107.172.733.313 1.393.313 1.472 0 1.338-.174-.332-.432-.748-.115-1.176-.067-1.061.119m15.948-.02l-1.33.239 1.394.047c.766.026 1.486-.103 1.599-.286.113-.182.084-.311-.064-.285l-1.599.285m-11.554.568a4.751 4.751 0 0 0 1.496 0c.411-.08.075-.144-.748-.144s-1.16.064-.748.144m6.65 0a4.751 4.751 0 0 0 1.496 0c.411-.08.075-.144-.748-.144s-1.16.064-.748.144m32.834 21.378l-1.995.22 1.829.017c1.006.009 2.278-.098 2.826-.237 1.279-.326.28-.326-2.66 0m49.072-.212c.335.291 2.965.451 2.965.18 0-.166-.698-.301-1.552-.301-.853 0-1.489.054-1.413.121m21.668 2.768c.32.084.844.084 1.164 0 .32-.083.058-.152-.582-.152s-.902.069-.582.152m3.076.421c.638.289 2.419.477 2.133.225-.076-.067-.737-.213-1.468-.324-.927-.141-1.129-.111-.665.099m-100.915 1.013c-.658.21-.692.266-.166.266.366 0 1.039-.12 1.496-.266.659-.211.693-.267.167-.267-.366 0-1.039.12-1.497.267m106.235-.016c.638.289 2.419.478 2.133.226-.076-.067-.737-.213-1.468-.325-.927-.141-1.129-.111-.665.099m-110.89 1.013c-.658.211-.692.266-.166.266.366 0 1.039-.119 1.496-.266.659-.211.693-.266.167-.266-.366 0-1.039.12-1.497.266m115.379 0c.274.177.872.31 1.33.294l.831-.028-.831-.266c-1.282-.41-1.965-.41-1.33 0m-119.369.998c-.668.214-.7.268-.166.276.366.005.964-.119 1.33-.276.847-.364-.027-.364-1.164 0m124.19.189c.914.255 1.812.45 1.995.434.563-.048-2.285-.905-2.993-.901-.365.003.084.213.998.467m-128.346.987c-1.317.455-1.318.458-.166.269.64-.106 1.388-.32 1.662-.476.732-.417.025-.319-1.496.207m131.338-.179c.366.157.965.281 1.33.276.535-.008.502-.062-.166-.276-1.137-.364-2.011-.364-1.164 0m-134.663 1.152c-1.284.588-.687.597.831.012.64-.247.94-.453.665-.459-.274-.005-.947.196-1.496.447m138.155-.197c.274.164 1.022.392 1.662.505.785.139.948.113.499-.079-1.028-.44-2.752-.78-2.161-.426m3.325.984c.274.17.873.408 1.33.531.577.154.679.128.332-.086-.274-.17-.873-.408-1.33-.531-.578-.154-.679-.128-.332.086m3.325 1.22c1.518.585 2.115.576.831-.012-.549-.251-1.222-.452-1.496-.447-.275.006.025.212.665.459m-153.201.842c-1.113.447-.905.674.25.272.548-.191.997-.408.997-.482 0-.197-.404-.129-1.247.21m155.861.155c.457.262.981.476 1.163.476.183 0-.041-.214-.498-.476-.457-.261-.981-.475-1.164-.475-.183 0 .042.214.499.475m-158.437 1.01c-.832.4-.86.446-.167.277.942-.23 2.001-.77 1.497-.763-.183.003-.782.221-1.33.486m161.73.343c.989.449 1.853.76 1.922.692.145-.145-3.042-1.555-3.448-1.527-.149.011.538.387 1.526.835m-166.219 1.64c-.457.261-.682.475-.499.475.183 0 .707-.214 1.164-.475.457-.261.681-.475.498-.475-.182 0-.706.214-1.163.475m169.271-.373c.339.31 3.63 1.863 3.63 1.714 0-.187-3.176-1.84-3.536-1.84-.128 0-.17.057-.094.126M113.3 268.684c-.686.362-1.247.733-1.247.824 0 .09.599-.141 1.33-.514.732-.373 1.33-.75 1.33-.838 0-.217-.002-.216-1.413.528m-5.483 3.325c-1.138.744-2.163 1.504-2.278 1.689-.114.185.856-.37 2.156-1.235 2.066-1.374 2.611-1.806 2.277-1.806-.047 0-1.017.608-2.155 1.352m184.12-1.269c0 .089 1.053.868 2.341 1.732 1.288.864 3.238 2.4 4.333 3.414 1.095 1.014 2.063 1.772 2.15 1.685.199-.199-3.109-3.084-5.333-4.653-2.311-1.63-3.491-2.366-3.491-2.178m-188.051 4.322l-.977 1.081 1.081-.977c1.007-.91 1.233-1.184.977-1.184-.058 0-.544.486-1.081 1.08m-3.919 3.774c-.858 1.178-.549 1.249.391.089.425-.524.65-.949.499-.943-.152.006-.552.39-.89.854m202.043.597c.678.895 1.232 1.755 1.232 1.912 0 .156.157.284.348.284.407 0-1.343-2.639-2.217-3.344-.327-.264-.04.253.637 1.148m-205.557 6.048c-.214.852-.327 1.612-.251 1.688.076.076.314-.559.528-1.411.215-.852.328-1.612.252-1.688-.076-.076-.314.559-.529 1.411m208.462-.859c0 .274.145.723.322.997.286.444.322.444.322 0 0-.274-.145-.723-.322-.997-.287-.444-.322-.444-.322 0m.408 7.338c-.228.965-.35 1.819-.272 1.897.213.213.906-2.557.787-3.144-.056-.28-.288.281-.515 1.247m-209.027-.023c.113.64.34 1.388.505 1.662.354.591.014-1.133-.426-2.161-.193-.449-.218-.286-.079.499m.8 2.453c-.053 3.028 8.843 11.248 16.204 14.972 2.159 1.093 1.007.238-1.995-1.48-6.039-3.455-10.751-7.692-13.035-11.721-.643-1.134-1.171-1.931-1.174-1.771m206.546 1.892c-.414.719-.685 1.307-.603 1.307.229 0 1.626-2.345 1.482-2.489-.069-.069-.465.462-.879 1.182m-3.373 4.401c-2.163 2.383-2.233 2.496-.556.896 1.638-1.561 3.479-3.698 3.136-3.639-.058.01-1.219 1.245-2.58 2.743m-4.806 4.057c-2.363 1.784-2.703 2.126-1.328 1.335 1.055-.606 3.756-2.805 3.454-2.812-.091-.002-1.048.663-2.126 1.477m-3.945 2.616c-1.793 1.103-1.974 1.405-.352.587.765-.386 1.485-.853 1.599-1.039.287-.464.181-.426-1.247.452m-5.035 2.721c-3.039 1.507-4.013 2.106-2.469 1.519 1.361-.517 5.595-2.691 5.595-2.872 0-.212.245-.318-3.126 1.353m-169.775.979c.457.261.981.475 1.164.475.183 0-.042-.214-.499-.475-.457-.262-.981-.475-1.164-.475-.182 0 .042.213.499.475m164.921 1.33c-.457.261-.681.475-.498.475.182 0 .706-.214 1.163-.475.457-.262.682-.475.499-.475-.183 0-.707.213-1.164.475m-3.158 1.208c-1.811.735-2.489 1.188-1.166.78 1.223-.377 3.546-1.442 3.161-1.448-.183-.003-1.081.298-1.995.668m-155.113.232c.275.169.873.408 1.33.53.578.155.679.129.333-.085-.275-.17-.873-.409-1.33-.531-.578-.154-.679-.128-.333.086m3.325 1.148c.247.263 4.091 1.578 4.224 1.446.062-.063-.526-.348-1.307-.634-1.863-.682-3.124-1.033-2.917-.812m144.472 1.235c-.419.181-.48.286-.166.286.275 0 .798-.128 1.164-.286.419-.18.481-.285.166-.285-.274 0-.798.128-1.164.285m-137.988.998c.366.157.89.286 1.164.286.314 0 .253-.106-.166-.286-.366-.157-.89-.286-1.164-.286-.315 0-.253.106.166.286m134.663 0c-.243.393.083.393.998 0 .641-.276.639-.287-.064-.309-.4-.013-.821.126-.934.309m-131.809.784c.076.066.587.22 1.136.343.729.163.863.132.499-.114-.449-.304-1.969-.516-1.635-.229m4.461 1.211c.994.427 1.825.427 1.164 0-.274-.177-.798-.314-1.164-.304l-.665.018.665.286m119.701 0l-.665.286h.665c.366 0 .964-.129 1.33-.286l.665-.286h-.665c-.366 0-.964.129-1.33.286m-115.545.998c.458.146 1.131.27 1.497.275l.665.01-.665-.285c-.366-.158-1.039-.282-1.497-.276l-.831.009.831.267m111.222 0c-.245.396.407.396 1.33 0 .594-.256.57-.289-.229-.31-.493-.012-.988.127-1.101.31m-3.99.838c-.914.235-1.363.439-.997.453.366.014 1.413-.182 2.327-.437 2.087-.581.922-.594-1.33-.016m-103.214-.051c.076.067.737.213 1.469.324.927.141 1.128.112.665-.098-.639-.29-2.42-.478-2.134-.226m96.897 1.216c-.444.197-.168.229.831.097.823-.109 1.559-.252 1.635-.318.289-.25-1.831-.06-2.466.221m-86.534.886c.32.083.844.083 1.164 0 .32-.084.058-.152-.582-.152s-.902.068-.582.152m6.068.771c.638.271 3.418.457 3.131.21-.076-.066-.961-.204-1.967-.306-1.138-.116-1.578-.08-1.164.096m68.246.232a4.757 4.757 0 0 0 1.497 0c.411-.08.074-.144-.749-.144-.822 0-1.159.064-.748.144m-58.354.659c.32.084.844.084 1.164 0 .32-.083.058-.152-.582-.152s-.902.069-.582.152m50.541.009a7.357 7.357 0 0 0 1.828 0c.503-.076.092-.138-.914-.138s-1.417.062-.914.138m-3.492.329a4.757 4.757 0 0 0 1.497 0c.411-.079.074-.144-.749-.144s-1.159.065-.748.144m-41.226.333c.413.08 1.012.077 1.33-.007.318-.083-.021-.148-.752-.144-.732.004-.992.072-.578.151m7.482.336c.505.077 1.253.075 1.662-.004.409-.079-.004-.142-.919-.139-.914.002-1.249.067-.743.143m9.472-.004a4.751 4.751 0 0 0 1.496 0c.411-.079.075-.144-.748-.144s-1.16.065-.748.144m15.133.004c.505.077 1.254.075 1.663-.004.408-.079-.005-.142-.919-.139-.915.002-1.249.067-.744.143m-19.78.338c.782.07 1.979.069 2.66-.002.681-.072.041-.129-1.422-.128-1.463.001-2.02.06-1.238.13m11.13.003c1.418.063 3.737.063 5.154 0 1.417-.062.258-.113-2.577-.113-2.834 0-3.994.051-2.577.113" fill="#c8d4d9"/>
    </g>
</svg>
